<svg width="50" height="50" viewBox="0 0 50 50" fill="none" xmlns="http://www.w3.org/2000/svg">
<path d="M16.952 17.2485C16.952 16.8003 16.7739 16.3704 16.457 16.0535L14.067 13.6635C13.91 13.5065 13.7236 13.3819 13.5185 13.2969C13.3134 13.212 13.0935 13.1682 12.8715 13.1682C12.6495 13.1682 12.4296 13.212 12.2245 13.2969C12.0194 13.3819 11.833 13.5065 11.676 13.6635L1.8935 23.446C1.48143 23.8582 1.24994 24.4172 1.24994 25C1.24994 25.5828 1.48143 26.1418 1.8935 26.554L11.676 36.3365C11.9929 36.6535 12.4227 36.8316 12.8709 36.8317C13.3191 36.8318 13.749 36.6539 14.066 36.337L16.456 33.947C16.773 33.63 16.951 33.2 16.951 32.7517C16.951 32.3035 16.773 31.8735 16.456 31.5565L9.9 25L16.457 18.444C16.614 18.287 16.7385 18.1006 16.8234 17.8955C16.9084 17.6904 16.9521 17.4705 16.952 17.2485Z" fill="url(#paint0_linear_503_18332)"/>
<path d="M37.1285 13.168C36.6805 13.168 36.2505 13.346 35.9335 13.663L33.5435 16.053C33.2265 16.37 33.0485 16.8 33.0485 17.2483C33.0485 17.6965 33.2265 18.1265 33.5435 18.4435L40.1 25L33.543 31.556C33.2261 31.8729 33.048 32.3028 33.048 32.751C33.048 33.1992 33.2261 33.6291 33.543 33.946L35.933 36.336V36.337C36.09 36.494 36.2764 36.6186 36.4815 36.7036C36.6866 36.7885 36.9065 36.8323 37.1285 36.8323C37.3505 36.8323 37.5704 36.7885 37.7755 36.7036C37.9806 36.6186 38.167 36.494 38.324 36.337L48.1065 26.5545C48.3106 26.3504 48.4725 26.1081 48.583 25.8414C48.6935 25.5747 48.7503 25.2889 48.7503 25.0003C48.7503 24.7116 48.6935 24.4258 48.583 24.1591C48.4725 23.8924 48.3106 23.6501 48.1065 23.446L38.324 13.663C38.0071 13.3461 37.5767 13.168 37.1285 13.168Z" fill="url(#paint1_linear_503_18332)"/>
<path d="M29.72 4.7165H26.4785C26.0783 4.71631 25.6911 4.8582 25.3858 5.11689C25.0805 5.37557 24.877 5.73425 24.8115 6.129L18.6135 43.315C18.5728 43.5572 18.5854 43.8054 18.6504 44.0423C18.7155 44.2791 18.8315 44.499 18.9902 44.6864C19.149 44.8738 19.3468 45.0243 19.5697 45.1275C19.7926 45.2306 20.0354 45.2838 20.281 45.2835H23.522C23.9223 45.2839 24.3097 45.1421 24.6151 44.8834C24.9205 44.6247 25.1241 44.2659 25.1895 43.871L31.387 6.685C31.4275 6.44284 31.4148 6.19474 31.3497 5.958C31.2846 5.72125 31.1687 5.50154 31.01 5.31417C30.8513 5.12679 30.6537 4.97625 30.4309 4.87304C30.2081 4.76982 29.9655 4.7164 29.72 4.7165Z" fill="url(#paint2_linear_503_18332)"/>
<defs>
<linearGradient id="paint0_linear_503_18332" x1="-7.835" y1="2.354" x2="41.9755" y2="57.8465" gradientUnits="userSpaceOnUse">
<stop stop-color="#4E6BFF" stop-opacity="0.5"/>
<stop offset="1" stop-color="#4E6BFF"/>
</linearGradient>
<linearGradient id="paint1_linear_503_18332" x1="6.0185" y1="-10.081" x2="55.829" y2="45.4115" gradientUnits="userSpaceOnUse">
<stop stop-color="#4E6BFF" stop-opacity="0.5"/>
<stop offset="1" stop-color="#4E6BFF"/>
</linearGradient>
<linearGradient id="paint2_linear_503_18332" x1="-0.907998" y1="-3.864" x2="48.9025" y2="51.6285" gradientUnits="userSpaceOnUse">
<stop stop-color="#4E6BFF" stop-opacity="0.5"/>
<stop offset="1" stop-color="#4E6BFF"/>
</linearGradient>
</defs>
</svg>
