<svg width="50" height="50" viewBox="0 0 50 50" fill="none" xmlns="http://www.w3.org/2000/svg">
<path d="M48.5606 27.6515C49.0152 26.6667 49.2424 25.5303 49.2424 24.4697C49.2424 20 45.6061 16.2879 41.0606 16.2879C38.6364 16.2879 36.4394 17.3485 34.9243 19.0909C34.0909 18.4091 33.2576 17.7273 32.2727 17.197C32.2727 17.1212 32.3485 17.0455 32.3485 17.0455V8.71213L35.5303 7.50001V11.8182L34.0909 13.1818C33.7879 13.4849 33.7879 13.9394 34.0909 14.2424C34.2424 14.3939 34.394 14.4697 34.6212 14.4697C34.8485 14.4697 35 14.3939 35.1515 14.2424L35.4546 13.9394V14.5455C35.4546 15 35.7576 15.303 36.2121 15.303C36.6667 15.303 36.9697 15 36.9697 14.5455V13.9394L37.2727 14.2424C37.4243 14.3939 37.5758 14.4697 37.8031 14.4697C38.0303 14.4697 38.1818 14.3939 38.3334 14.2424C38.6364 13.9394 38.6364 13.4849 38.3334 13.1818L36.894 11.7424V6.28789C36.894 5.98486 36.7424 5.68183 36.4394 5.60607L24.6212 0.984858C24.4697 0.9091 24.2424 0.9091 24.0909 0.984858L12.197 5.60607C11.894 5.75759 11.7424 5.98486 11.7424 6.28789C11.7424 6.59092 11.894 6.89395 12.197 6.96971L16.0606 8.48486V16.8939C16.0606 17.0455 16.1364 17.1212 16.1364 17.2727C13.7317 18.6998 11.7405 20.7289 10.3589 23.1599C8.97729 25.591 8.25307 28.3402 8.2576 31.1364C8.2576 31.6667 8.2576 32.197 8.33335 32.803C4.09093 33.1061 0.757596 36.5909 0.757596 40.9091C0.757596 42.0455 0.984869 43.1061 1.43941 44.0909L0.757596 47.6515C0.681839 47.8788 0.757596 48.1818 0.984869 48.3333C1.13638 48.4849 1.43941 48.5606 1.66669 48.4849L4.77275 47.8788C5.98487 48.6364 7.42426 49.0152 8.86366 49.0152C11.894 49.0152 14.5455 47.3485 15.9849 44.8485C18.4849 46.3636 21.3637 47.197 24.3182 47.197C32.7273 47.197 39.6212 40.7576 40.303 32.5H40.9849C42.4243 32.5 43.8637 32.1212 45.0758 31.3636L48.1818 31.9697C48.4091 32.0455 48.6364 31.9697 48.8637 31.7424C49.0152 31.5909 49.0909 31.2879 49.0909 31.0606L48.5606 27.6515ZM16.894 25.6818C16.6667 27.197 16.4394 28.7879 16.4394 30.4546H9.92426C10.4546 28.4091 13.1061 26.6667 16.894 25.6818ZM8.93941 47.5758C7.65154 47.5758 6.43941 47.197 5.37881 46.5152C5.22729 46.4394 5.07578 46.3636 5.00002 46.3636H4.84851L2.50002 46.8182L2.95457 44.1667C2.95457 44.0152 2.95457 43.8636 2.87881 43.7121C2.50002 42.803 2.27275 41.8939 2.27275 40.9091C2.27275 37.2727 5.22729 34.2424 8.93941 34.2424C12.5758 34.2424 15.6061 37.197 15.6061 40.9091C15.6061 44.6212 12.5758 47.5758 8.93941 47.5758ZM15.9091 36.4394H15.6061C14.394 34.697 12.5 33.4091 10.3031 32.9546C10.0758 32.6515 9.92426 32.2727 9.84851 31.9697H16.3637C16.3637 33.6364 16.5152 35.2273 16.8182 36.6667C16.5909 36.5909 16.2121 36.5152 15.9091 36.4394ZM16.5909 43.4849C16.894 42.6515 17.0455 41.8182 17.0455 40.9091C17.0455 39.9243 16.894 39.0152 16.5152 38.1061C16.7424 38.1818 16.9697 38.2576 17.197 38.2576C17.8788 41.1364 19.0152 43.5606 20.3788 45.1515C19.0909 44.8485 17.8031 44.2424 16.5909 43.4849ZM23.6364 45.6061C21.6667 45.0758 19.9243 42.3485 18.8637 38.6364C20.3788 38.9394 21.9697 39.0909 23.6364 39.0909V45.6061ZM23.6364 30.3788H17.9546C18.0303 28.5606 18.1818 26.8182 18.4849 25.2273C20.0758 24.9243 21.8182 24.697 23.6364 24.697V30.3788ZM23.6364 23.1818C21.9697 23.1818 20.3788 23.4091 18.8637 23.6364C19.4697 21.4394 20.3031 19.6212 21.3637 18.3333C22.1212 18.4091 22.8788 18.4091 23.6364 18.4091V23.1818ZM17.5758 16.3636V9.16668L24.0909 11.7424C24.1667 11.8182 24.2424 11.8182 24.394 11.8182C24.4697 11.8182 24.5455 11.8182 24.697 11.7424L30.9091 9.31819V16.3636C26.5909 17.1212 22.1212 17.1212 17.5758 16.3636ZM27.3485 18.3333C28.4091 19.6212 29.2424 21.4394 29.8485 23.6364C28.3334 23.3333 26.7424 23.1818 25.0758 23.1818V18.4091C25.8334 18.4091 26.5909 18.4091 27.3485 18.3333ZM25.1515 45.6061V39.0909C26.8182 39.0909 28.4091 38.8636 29.8485 38.6364C28.8637 42.4243 27.1212 45.0758 25.1515 45.6061ZM30.2273 37.0455C28.6364 37.3485 26.894 37.5758 25.0758 37.6515V31.9697H30.7576C30.7576 33.7121 30.6061 35.4546 30.2273 37.0455ZM29.0909 18.1818L30.4546 17.9546C31.7424 18.5606 32.9546 19.3182 34.0152 20.303C33.3334 21.5152 32.8788 22.8788 32.8788 24.3939C32.4243 24.2424 31.9697 24.0909 31.4394 24.0152C30.9849 21.6667 30.1515 19.697 29.0909 18.1818ZM35.6061 30.3788H32.3485C32.2727 28.7121 32.1212 27.1212 31.894 25.6061C32.3485 25.7576 32.7273 25.8333 33.1061 25.9849C33.4849 27.7273 34.3182 29.2424 35.6061 30.3788ZM31.894 36.6667C32.1212 35.1515 32.3485 33.5606 32.3485 31.8939H37.8788C38.1061 31.9697 38.4091 32.1212 38.7121 32.197C37.9546 34.0909 35.3788 35.6818 31.894 36.6667ZM47.0455 27.6515L47.5 30.303L45.1515 29.8485C45 29.8485 44.7727 29.8485 44.6212 29.9243C43.5606 30.6061 42.3485 30.9849 41.0606 30.9849C37.4243 30.9849 34.394 28.0303 34.394 24.3182C34.394 20.6818 37.3485 17.6515 41.0606 17.6515C44.697 17.6515 47.7273 20.6061 47.7273 24.3182C47.7273 25.303 47.5 26.2121 47.1212 27.1212C47.0455 27.3485 47.0455 27.5 47.0455 27.6515Z" fill="url(#paint0_linear_503_18355)"/>
<path d="M9.62123 36.0606C9.54547 35.7576 9.24244 35.5303 8.86366 35.5303C8.56063 35.5303 8.2576 35.7576 8.10608 36.0606L5.53032 44.4697C5.45457 44.9243 5.68184 45.303 6.06063 45.4545C6.43941 45.6061 6.89396 45.3788 7.04547 44.9242L7.95457 41.9697H9.84851L10.7576 44.9242C10.8334 45.2273 11.1364 45.4545 11.5152 45.4545H11.7424C12.1212 45.303 12.3485 44.9243 12.2727 44.4697L9.62123 36.0606ZM8.40911 40.4546L8.93941 38.7879L9.46972 40.4546H8.40911ZM44.0909 21.7424H41.8182V20.3788C41.8182 19.9242 41.5152 19.6212 41.0606 19.6212C40.6061 19.6212 40.303 19.9242 40.303 20.3788V21.7424H38.0303C37.5758 21.7424 37.2727 22.0455 37.2727 22.5C37.2727 22.9546 37.5758 23.2576 38.0303 23.2576H38.3334C38.6364 24.5455 39.1667 25.6061 39.9243 26.4394C39.5455 26.7424 39.0909 26.9697 38.6364 27.197C38.2576 27.3485 38.1061 27.803 38.2576 28.1818C38.4091 28.4849 38.6364 28.6364 38.9394 28.6364C39.0152 28.6364 39.1667 28.6364 39.2424 28.5606C39.9243 28.2576 40.5303 27.9545 41.0606 27.5C41.5909 27.9545 42.197 28.2576 42.8788 28.5606C42.9546 28.6364 43.1061 28.6364 43.1818 28.6364C43.4849 28.6364 43.7879 28.4849 43.8637 28.1818C44.0152 27.803 43.8637 27.3485 43.4849 27.197C43.0303 26.9697 42.5758 26.7424 42.197 26.4394C42.9546 25.5303 43.4849 24.4697 43.7879 23.2576H44.0909C44.5455 23.2576 44.8485 22.9546 44.8485 22.5C44.8485 22.0455 44.5455 21.7424 44.0909 21.7424ZM41.0606 25.3788C40.6061 24.7727 40.2273 24.0152 39.9243 23.1818H42.197C41.9697 24.0909 41.5909 24.7727 41.0606 25.3788Z" fill="url(#paint1_linear_503_18355)"/>
<defs>
<linearGradient id="paint0_linear_503_18355" x1="24.9858" y1="0.92804" x2="24.9858" y2="49.0152" gradientUnits="userSpaceOnUse">
<stop stop-color="#4E6BFF" stop-opacity="0.53"/>
<stop offset="0.423077" stop-color="#4E6BFF"/>
</linearGradient>
<linearGradient id="paint1_linear_503_18355" x1="25.1822" y1="19.6212" x2="25.1822" y2="45.5013" gradientUnits="userSpaceOnUse">
<stop stop-color="#4E6BFF" stop-opacity="0.53"/>
<stop offset="0.423077" stop-color="#4E6BFF"/>
</linearGradient>
</defs>
</svg>
