<svg width="50" height="50" viewBox="0 0 50 50" fill="none" xmlns="http://www.w3.org/2000/svg">
<g clip-path="url(#clip0_503_18348)">
<path fill-rule="evenodd" clip-rule="evenodd" d="M27.3256 21.6728C27.3256 23.3164 25.9899 24.6531 24.3463 24.6542H24.3412C22.6976 24.6531 21.3619 23.3164 21.3619 21.6728C21.3619 20.0286 22.7025 18.6915 24.346 18.6915C25.9901 18.6915 27.3256 20.0292 27.3256 21.6728ZM24.3461 14.183C18.8644 14.183 14.4042 18.6416 14.4042 24.1235C14.4042 29.6056 18.8641 34.0645 24.3461 34.0645C29.8262 34.0645 34.2834 29.6028 34.2834 24.1235C34.2833 18.6443 29.8259 14.183 24.3461 14.183ZM44.1303 21.466C44.1303 23.183 42.7344 24.5795 41.0173 24.58H41.0124C39.7286 24.5795 38.5803 23.7868 38.115 22.5952L38.097 22.5488L38.0911 22.4994C38.0476 22.1272 37.9879 21.757 37.9123 21.3899L37.9017 21.3394L37.9048 21.2877C38.0002 19.6426 39.3686 18.3516 41.0172 18.3516C42.7346 18.3516 44.1303 19.7488 44.1303 21.466ZM24.3461 11.0635C17.1438 11.0635 11.2828 16.9206 11.2828 24.1235C11.2828 31.3264 17.1438 37.1836 24.3461 37.1836C31.5464 37.1836 37.4047 31.3237 37.4047 24.1235C37.4047 16.9233 31.5465 11.0635 24.3461 11.0635ZM10.7753 21.3895C10.6993 21.755 10.6413 22.1241 10.6015 22.4953L10.5959 22.5479L10.5764 22.5972C10.1065 23.7865 8.95936 24.58 7.67488 24.58C5.95535 24.58 4.5618 23.1851 4.5618 21.466C4.5618 19.7489 5.9574 18.3516 7.67488 18.3516C9.32147 18.3516 10.6875 19.6449 10.7827 21.2873L10.7857 21.3389L10.7753 21.3895ZM41.1906 36.0279L48.5767 43.1926C48.9028 43.5089 48.9107 44.0436 48.5943 44.3697L45.9271 47.118C45.611 47.4437 45.0787 47.4519 44.753 47.1359L37.3641 39.9682C37.2075 39.8162 37.1206 39.6099 37.1122 39.3924L37.1119 39.3849V39.3773C37.1119 39.1563 37.1936 38.9444 37.3466 38.7916L40.0171 36.0395C40.1706 35.8845 40.3786 35.7957 40.5967 35.7921L40.6119 35.792C40.828 35.7919 41.0378 35.8745 41.1906 36.0279Z" fill="#4E6BFF"/>
<path fill-rule="evenodd" clip-rule="evenodd" d="M14.5249 4.90682C14.2577 4.56776 14.3176 4.07675 14.6539 3.81005C14.9948 3.54335 15.4877 3.60233 15.7503 3.94178L18.1226 6.95868C18.3898 7.29774 18.33 7.78876 17.989 8.05546C17.8526 8.1632 17.6838 8.22192 17.5099 8.22216C17.3912 8.22201 17.2741 8.19509 17.1672 8.14341C17.0603 8.09172 16.9665 8.01659 16.8927 7.92362L14.5249 4.90682ZM30.5649 6.95858L32.9373 3.94169C33.2045 3.60223 33.6928 3.54325 34.0337 3.80995C34.3746 4.07665 34.4299 4.56766 34.1673 4.90673L31.7949 7.92362C31.6429 8.11981 31.4126 8.22216 31.1776 8.22216C31.0038 8.22185 30.835 8.16314 30.6985 8.05546C30.3576 7.78866 30.2977 7.29764 30.5649 6.95858ZM23.563 6.0788V2.24237C23.563 1.81073 23.9131 1.46112 24.3461 1.46112C24.7745 1.46112 25.1246 1.81083 25.1246 2.24237V6.0787C25.1246 6.51034 24.7745 6.85995 24.3461 6.85995C23.9131 6.86005 23.563 6.51034 23.563 6.0788ZM18.5465 30.6952C19.0302 27.8939 21.4578 25.8266 24.3415 25.8256H24.3461C27.2298 25.8265 29.6574 27.8939 30.1411 30.6952C28.5979 32.0615 26.5664 32.8926 24.3461 32.8926C22.1211 32.8926 20.0942 32.0615 18.5465 30.6952ZM24.3461 24.2636H24.3415C22.9135 24.2627 21.7526 23.1009 21.7526 21.6728C21.7526 20.2443 22.9181 19.0821 24.3461 19.0821C25.7741 19.0821 26.9349 20.2443 26.9349 21.6728C26.9349 23.1009 25.7741 24.2627 24.3461 24.2636ZM24.3461 15.355C19.5092 15.355 15.5752 19.2885 15.5752 24.1235C15.5752 26.0675 16.2109 27.8659 17.2843 29.3211C17.989 27.232 19.5829 25.5806 21.596 24.7841C20.7346 24.0225 20.191 22.9101 20.191 21.6728C20.191 19.3824 22.0566 17.5195 24.3461 17.5195C26.6355 17.5195 28.4966 19.3824 28.4966 21.6728C28.4966 22.9101 27.953 24.0226 27.0916 24.7841C28.0969 25.1813 29.0035 25.7931 29.7482 26.5767C30.4929 27.3603 31.0577 28.2968 31.4033 29.3211C32.4766 27.8658 33.1123 26.0675 33.1123 24.1235C33.1124 19.2885 29.1783 15.355 24.3461 15.355ZM24.3461 13.7925C18.6477 13.7925 14.0136 18.4271 14.0136 24.1236C14.0136 29.8206 18.6477 34.4552 24.3461 34.4552C30.0397 34.4552 34.674 29.8205 34.674 24.1236C34.6739 18.427 30.0397 13.7925 24.3461 13.7925ZM48.314 44.0975L45.6468 46.8458C45.4809 47.0176 45.1953 47.0213 45.0249 46.8555L37.636 39.6877C37.5531 39.6066 37.507 39.4961 37.5024 39.3772C37.5024 39.2589 37.5438 39.1465 37.6268 39.0636L40.294 36.3148C40.3757 36.2322 40.4864 36.1847 40.6026 36.1826H40.6118C40.7269 36.1826 40.8375 36.226 40.9158 36.3057L48.3047 43.4729C48.4752 43.6396 48.4798 43.9258 48.314 44.0975ZM35.54 32.9004L38.5712 35.8439L37.2997 37.1582L34.3192 34.2657C34.7522 33.8369 35.1623 33.3818 35.54 32.9004ZM11.6734 24.1235C11.6734 31.1094 17.3579 36.793 24.3461 36.793C31.3296 36.793 37.014 31.1094 37.014 24.1235C37.014 17.1377 31.3296 11.4541 24.3461 11.4541C17.3579 11.4541 11.6734 17.1377 11.6734 24.1235ZM1.71405 30.376C2.39579 27.6871 4.81883 25.7523 7.67489 25.7523V25.7519C8.57598 25.7525 9.46599 25.9506 10.2822 26.3324C10.5038 27.7369 10.9355 29.1001 11.5629 30.3761H1.71405V30.376ZM4.95253 21.466C4.95253 19.9642 6.17323 18.7422 7.67499 18.7422C9.12147 18.7422 10.3099 19.8805 10.3929 21.3099C10.3143 21.688 10.2543 22.0697 10.2132 22.4537C9.81239 23.4681 8.82665 24.189 7.67499 24.1894C6.16864 24.189 4.95253 22.9673 4.95253 21.466ZM41.0172 18.7422C42.5189 18.7422 43.7396 19.9643 43.7396 21.466C43.7396 22.9673 42.5189 24.189 41.0172 24.1893H41.0126C39.8609 24.1889 38.8752 23.468 38.479 22.4531C38.4329 22.0671 38.373 21.6861 38.2947 21.3102C38.3776 19.8809 39.5661 18.7422 41.0172 18.7422ZM46.9734 30.376H37.1293C37.7466 29.1202 38.1796 27.7613 38.4053 26.3323C39.2214 25.9505 40.1115 25.7525 41.0126 25.7523H41.0172C43.8686 25.7524 46.2963 27.6872 46.9734 30.376ZM49.3919 42.3516L42.0076 35.1843C41.6253 34.8125 41.1185 34.6112 40.5796 34.6199C40.2941 34.6243 40.0129 34.69 39.755 34.8125L36.793 31.9385H47.9086C48.018 31.9383 48.1263 31.9152 48.2262 31.8706C48.3262 31.826 48.4157 31.7609 48.489 31.6796C48.6364 31.5146 48.71 31.294 48.6824 31.0743C48.3691 28.127 46.4298 25.7243 43.8133 24.7099C44.7254 23.923 45.3012 22.7613 45.3012 21.4659C45.3012 19.1023 43.3803 17.1795 41.0171 17.1795C39.6121 17.1795 38.3683 17.8566 37.5851 18.901C35.4984 13.6297 30.3482 9.89149 24.3459 9.89149C18.339 9.89149 13.1934 13.6297 11.1066 18.9015C10.3235 17.8571 9.07518 17.1795 7.67469 17.1795C5.31151 17.1795 3.38602 19.1022 3.38602 21.4659C3.38602 22.7612 3.96649 23.923 4.8786 24.7099C2.25751 25.7237 0.31815 28.127 0.00486917 31.0743C-0.00683202 31.1831 0.0043327 31.2931 0.0376474 31.3974C0.0709621 31.5016 0.125692 31.5977 0.198326 31.6796C0.350377 31.8436 0.557604 31.9385 0.783385 31.9385H12.4564C15.0038 35.8006 19.3801 38.3554 24.346 38.3554C27.6627 38.3554 30.7215 37.2139 33.1445 35.3026L36.2447 38.3116C36.042 38.6346 35.9361 39.0095 35.9407 39.4001C35.9499 39.9372 36.1664 40.4375 36.5488 40.8083L43.9377 47.9765C44.3247 48.3533 44.8267 48.5408 45.3289 48.5408C45.854 48.5408 46.3792 48.3377 46.7708 47.9337L49.4334 45.1854C50.2072 44.3924 50.1843 43.121 49.3919 42.3516Z" fill="#4E6BFF" fill-opacity="0.5"/>
</g>
<defs>
<clipPath id="clip0_503_18348">
<rect width="50" height="50" fill="white"/>
</clipPath>
</defs>
</svg>
