<svg width="42" height="50" viewBox="0 0 42 50" fill="none" xmlns="http://www.w3.org/2000/svg">
<path d="M17.0469 49.2188H37.0391C38.1967 49.2167 39.3063 48.7559 40.1248 47.9373C40.9434 47.1188 41.4042 46.0092 41.4063 44.8516V5.14844C41.4042 3.99082 40.9434 2.88121 40.1248 2.06265C39.3063 1.24409 38.1967 0.783315 37.0391 0.78125H17.0469C15.8893 0.783315 14.7796 1.24409 13.9611 2.06265C13.1425 2.88121 12.6818 3.99082 12.6797 5.14844V6.72656H3.24219C1.78125 6.72656 0.59375 7.92188 0.59375 9.39063V18.4766C0.59375 19.9375 1.78125 21.125 3.24219 21.125H12.6797V44.8516C12.6818 46.0092 13.1425 47.1188 13.9611 47.9373C14.7796 48.7559 15.8893 49.2167 17.0469 49.2188ZM20.1484 6.72656H15.8516V5.14844C15.8516 4.49219 16.3906 3.96094 17.0469 3.96094H23.3438C23.8516 3.96094 24.3047 4.23438 24.4844 4.64063C24.9141 5.67188 25.9219 6.33594 27.0391 6.33594C28.1563 6.33594 29.1719 5.67187 29.6016 4.64844C29.7734 4.23437 30.2344 3.96094 30.7422 3.96094H37.0391C37.6953 3.96094 38.2344 4.49219 38.2344 5.14844V44.8516C38.2344 45.5078 37.6953 46.0391 37.0391 46.0391H17.0469C16.3906 46.0391 15.8516 45.5078 15.8516 44.8516V23.1484L18.625 25.9141C18.6719 25.9687 18.7344 25.9922 18.8047 26.0156C18.8203 26.0156 18.8359 26.0234 18.8516 26.0234C18.8672 26.0234 18.8828 26.0312 18.9063 26.0312C18.9582 26.031 19.0095 26.0206 19.0573 26.0004C19.1051 25.9802 19.1485 25.9507 19.1848 25.9136C19.2211 25.8766 19.2497 25.8327 19.269 25.7845C19.2882 25.7363 19.2977 25.6847 19.2969 25.6328V21.125H20.1484C21.6172 21.125 22.8125 19.9375 22.8125 18.4766V9.39063C22.8125 7.92188 21.6172 6.72656 20.1484 6.72656ZM3.24219 20.3281C2.21875 20.3281 1.38281 19.5 1.38281 18.4766V9.39063C1.38281 8.35938 2.21875 7.52344 3.24219 7.52344H20.1484C20.6436 7.52344 21.1186 7.72016 21.4687 8.07032C21.8189 8.42049 22.0156 8.89542 22.0156 9.39063V18.4766C22.0146 18.7207 21.9655 18.9623 21.8711 19.1875C21.7767 19.4127 21.6389 19.6171 21.4655 19.7891C21.2921 19.961 21.0866 20.0971 20.8606 20.1896C20.6346 20.2821 20.3926 20.3292 20.1484 20.3281H18.9063C18.6875 20.3281 18.5078 20.5078 18.5078 20.7266V24.6797L14.2734 20.4453C14.2008 20.3724 14.1029 20.3304 14 20.3281H3.24219Z" fill="url(#paint0_linear_503_18339)"/>
<path d="M18.6172 29.5625C18.4297 29.6719 18.375 29.9219 18.4844 30.1094L20.6953 33.6563C20.75 33.7422 20.8437 33.8047 20.9453 33.8281C20.9687 33.8359 21 33.8437 21.0313 33.8437C21.1094 33.8437 21.1797 33.8203 21.2422 33.7813L22.6719 32.8906L25.7578 36.5312C25.8359 36.625 25.9453 36.6719 26.0625 36.6719C26.1328 36.6719 26.2031 36.6562 26.2734 36.6172L29.75 34.4453C29.8594 34.3828 29.9297 34.2656 29.9375 34.1406C29.9453 34.0156 29.8906 33.8906 29.7969 33.8047L26.6406 31.1719L35.3594 28.9688C35.4844 28.9375 35.5781 28.8516 35.6328 28.7344C35.6797 28.6172 35.6641 28.4844 35.6016 28.375L33.9453 25.7187C34.0859 25.6719 34.2109 25.6094 34.3281 25.5391C34.875 25.1953 35.2578 24.6641 35.4062 24.0391C35.5547 23.4141 35.4453 22.7734 35.1094 22.2266C34.7734 21.6797 34.2422 21.3047 33.6172 21.1562C32.9844 21.0156 32.3437 21.1172 31.7969 21.4609C31.6797 21.5391 31.5625 21.625 31.4609 21.7266L29.8125 19.0703C29.7782 19.0173 29.7322 18.9728 29.678 18.9403C29.6238 18.9078 29.5629 18.8882 29.5 18.8828C29.4382 18.8793 29.3763 18.8902 29.3194 18.9146C29.2625 18.939 29.212 18.9762 29.1719 19.0234L22 27.4531L18.6172 29.5625ZM28.8672 34.0625L26.1406 35.7578L23.3594 32.4688L24.6328 31.6719L25.6875 31.4062L28.8672 34.0625ZM29.4219 19.9531L31.0625 22.5781V22.5938L32.9922 25.6953H33L34.6328 28.3281L24.6562 30.8516L23.7031 29.3203L22.7578 27.7891L29.4219 19.9531ZM5.74219 11.75C4.61719 11.75 3.70312 12.6641 3.70312 13.7891C3.70312 14.9141 4.61719 15.8359 5.74219 15.8359C6.86719 15.8359 7.78906 14.9141 7.78906 13.7891C7.78906 12.6641 6.86719 11.75 5.74219 11.75ZM11.7031 11.75C10.5781 11.75 9.65625 12.6641 9.65625 13.7891C9.65625 14.9141 10.5781 15.8359 11.7031 15.8359C12.8281 15.8359 13.7422 14.9141 13.7422 13.7891C13.7422 12.6641 12.8281 11.75 11.7031 11.75ZM17.6563 15.8359C18.7813 15.8359 19.6953 14.9141 19.6953 13.7891C19.6953 12.6641 18.7813 11.75 17.6563 11.75C16.5313 11.75 15.6172 12.6641 15.6172 13.7891C15.6172 14.9141 16.5313 15.8359 17.6563 15.8359Z" fill="url(#paint1_linear_503_18339)"/>
<defs>
<linearGradient id="paint0_linear_503_18339" x1="21" y1="0.78125" x2="21" y2="49.2188" gradientUnits="userSpaceOnUse">
<stop stop-color="#4E6BFF" stop-opacity="0.5"/>
<stop offset="1" stop-color="#4E6BFF"/>
</linearGradient>
<linearGradient id="paint1_linear_503_18339" x1="19.6816" y1="11.75" x2="19.6816" y2="36.6719" gradientUnits="userSpaceOnUse">
<stop stop-color="#4E6BFF" stop-opacity="0.5"/>
<stop offset="1" stop-color="#4E6BFF"/>
</linearGradient>
</defs>
</svg>
