<svg width="48" height="46" viewBox="0 0 48 46" fill="none" xmlns="http://www.w3.org/2000/svg">
<path fill-rule="evenodd" clip-rule="evenodd" d="M23.8901 33.9245C23.8098 33.3955 23.7141 32.8986 23.6036 32.444C24.2032 32.5102 24.8027 32.5001 25.3977 32.4137C25.512 32.8277 25.6137 33.2959 25.7003 33.806C25.0956 33.7105 24.4773 33.751 23.8902 33.9245H23.8901ZM22.066 40.7762L19.829 44.6487L20.7565 44.5413C20.9024 44.5245 21.0499 44.5551 21.177 44.6286C21.3042 44.7021 21.4044 44.8145 21.4627 44.9493L21.8321 45.8049L24.069 41.9272C24.0413 41.9204 24.0134 41.9152 23.9856 41.9077C23.2427 41.7087 22.5847 41.3173 22.0661 40.7762H22.066ZM27.1323 41.494C26.7935 41.6894 26.4288 41.836 26.0491 41.9296L28.2848 45.805L28.6541 44.9494C28.7124 44.8146 28.8125 44.7021 28.9397 44.6286C29.0669 44.5551 29.2143 44.5245 29.3603 44.5414L30.2878 44.6488L28.0507 40.7762C27.7798 41.0573 27.4706 41.299 27.1324 41.4941L27.1323 41.494ZM24.3395 40.5874C23.621 40.395 23.0208 39.9351 22.6495 39.2925C22.2782 38.6498 22.1796 37.9004 22.3719 37.1824C22.7047 35.9421 23.8306 35.1222 25.0575 35.1222C25.3005 35.1223 25.5423 35.1543 25.777 35.2174C27.2568 35.6144 28.1395 37.1424 27.7449 38.6225C27.5525 39.3395 27.0924 39.9389 26.4491 40.3101C25.8059 40.6812 25.0568 40.7799 24.3395 40.5874ZM24.7813 38.9403C25.353 39.0928 25.9423 38.7527 26.0948 38.181C26.2473 37.6093 25.9072 37.0199 25.3354 36.8675C24.7638 36.7121 24.1745 37.0521 24.022 37.6239C23.8695 38.1985 24.2097 38.785 24.7813 38.9403ZM24.8322 43.3397C24.9923 43.3501 25.1521 43.3657 25.3117 43.3869L25.0584 42.9478L24.8322 43.3397ZM7.24658 36.9496C7.24658 37.4585 7.19658 37.9551 7.09951 38.4237C7.88955 38.3314 8.575 38.2927 9.27363 38.2993C9.27773 38.1694 9.28037 38.0385 9.28037 37.9054C9.28037 34.5762 7.97344 32.235 6.61846 31.8145C6.46211 31.7923 6.30566 31.7707 6.14941 31.7478C5.68877 31.7599 5.21963 32.0045 4.79131 32.4466C5.24873 32.5139 5.6791 32.7372 6.02656 33.0983C6.77881 33.8782 7.24658 35.3542 7.24658 36.9496ZM6.24209 39.9207C6.1221 39.9393 5.99932 39.9255 5.88642 39.8808C5.77352 39.8362 5.67458 39.7622 5.5998 39.6665C5.52497 39.5709 5.47695 39.4571 5.46068 39.3368C5.44441 39.2165 5.46048 39.094 5.50723 38.9819C5.75088 38.3982 5.87959 37.6955 5.87959 36.9496C5.87959 35.7326 5.54307 34.566 5.04209 34.0467C4.84707 33.8439 4.6167 33.7598 4.3749 33.8025C4.07363 33.856 3.79365 34.1002 3.64404 34.4398L3.63936 34.4378C3.3002 35.3951 3.08926 36.5702 3.08926 37.9054C3.08926 41.5604 4.66455 44.0239 6.14912 44.0629C6.30605 44.04 6.46338 44.0179 6.62061 43.9956C7.7209 43.6525 8.78818 42.0424 9.1501 39.6659C8.26963 39.6645 7.39326 39.7433 6.24209 39.9207ZM21.0515 36.8284C21.3049 35.8838 21.8674 35.1034 22.6004 34.565C22.5292 34.0157 22.4412 33.5036 22.3382 33.0376C17.9492 32.9786 13.505 32.6775 9.08203 32.1395C10.0447 33.5096 10.6475 35.5664 10.6475 37.9053C10.6475 40.2441 10.0441 42.3033 9.08047 43.6734C12.4337 43.2697 15.8496 43.0018 19.2753 42.8743L21.228 39.4939C20.8764 38.6529 20.8115 37.7244 21.0515 36.8284ZM41.8597 31.7467C36.9158 32.4685 31.9021 32.8942 26.9431 33.0149C27.0305 33.4508 27.1033 33.8895 27.1614 34.3303C28.7254 35.2528 29.5554 37.1379 29.0653 38.9757C29.0177 39.152 28.9586 39.3251 28.8886 39.4938L30.9 42.9758C34.5761 43.1763 38.2607 43.541 41.8595 44.064C43.3416 44.0156 44.9106 41.5533 44.9106 37.9054C44.9106 34.2574 43.3417 31.7953 41.8597 31.7467ZM23.9999 18.3279C23.9225 18.3279 23.8457 18.3148 23.7728 18.2891L9.48564 13.2545V18.6211C14.569 21.5745 19.3206 23.0487 23.9999 23.1242C28.6792 23.0488 33.4307 21.5745 38.5142 18.6211V13.2545L24.2271 18.2891C24.1541 18.3148 24.0773 18.3279 23.9999 18.3279ZM47.7304 8.55742L24 0.195114L0.269531 8.55752L24 16.9198L47.7305 8.55752L47.7304 8.55742ZM23.9999 24.4913H23.9892C19.2798 24.4175 14.5247 23.0103 9.48564 20.1952V22.6917C14.5728 25.6475 19.3238 27.1217 23.9999 27.1971C28.676 27.1217 33.427 25.6475 38.5142 22.6917V20.1952C33.4751 23.0103 28.72 24.4175 24.0106 24.4913H23.9999ZM44.1438 22.5268C44.4974 22.1337 44.6928 21.6236 44.6924 21.0949C44.6924 20.1525 44.0806 19.3509 43.2334 19.0649V11.5918L41.8664 12.0735V19.0649C41.0192 19.351 40.4074 20.1525 40.4074 21.0949C40.4074 21.6447 40.6151 22.1467 40.956 22.5268L39.6324 26.4237C39.5196 26.7535 39.5365 27.1049 39.6793 27.4115C39.8415 27.7645 40.1253 27.967 40.4578 27.967H44.6419C44.9744 27.967 45.2582 27.7645 45.4197 27.4131C45.5632 27.105 45.5801 26.7536 45.4676 26.4244L44.1438 22.5268H44.1438Z" fill="url(#paint0_linear_503_18346)"/>
<defs>
<linearGradient id="paint0_linear_503_18346" x1="24" y1="0.195114" x2="24" y2="45.805" gradientUnits="userSpaceOnUse">
<stop stop-color="#4E6BFF" stop-opacity="0.5"/>
<stop offset="1" stop-color="#4E6BFF"/>
</linearGradient>
</defs>
</svg>
