<svg width="130" height="44" viewBox="0 0 130 44" fill="none" xmlns="http://www.w3.org/2000/svg">
<g clip-path="url(#clip0_32_2)">
<path d="M75.6902 24.313C75.7742 24.142 75.844 24.0054 75.9098 23.8666C76.8188 21.9525 77.727 20.0377 78.6361 18.1228C78.7217 17.9425 78.8007 17.758 78.9038 17.5849C79.1109 17.2358 79.4694 17.082 79.9077 17.0835C80.3218 17.0856 80.6545 17.2408 80.8483 17.5699C80.9398 17.7266 81.0155 17.8903 81.0929 18.052C82.0077 19.9647 82.9184 21.8781 83.8399 23.7886C83.923 23.9618 83.9405 24.1771 84.195 24.3009C84.4795 23.5534 84.7606 22.8137 85.0408 22.0741C85.8484 19.9411 86.6552 17.8081 87.4635 15.675C87.5201 15.527 87.565 15.3725 87.6466 15.2344C87.8878 14.8246 88.4341 14.6085 88.899 14.7265C89.4305 14.861 89.7574 15.2695 89.7034 15.7516C89.6883 15.8854 89.6385 16.0184 89.5894 16.1471C88.1813 19.856 86.7716 23.5634 85.3611 27.2715C85.3186 27.3823 85.282 27.4968 85.2205 27.6005C84.8404 28.2385 83.8349 28.2958 83.3717 27.7014C83.2594 27.5575 83.1904 27.388 83.1122 27.2256C82.1242 25.1706 81.1378 23.1148 80.1505 21.0591C80.084 20.9204 80.0108 20.783 79.9101 20.5842C79.7996 20.773 79.7097 20.9039 79.6432 21.0434C78.6668 23.0813 77.6937 25.1206 76.7181 27.1591C76.6408 27.3215 76.5634 27.4846 76.4686 27.6399C76.2682 27.9681 75.9197 28.1133 75.5139 28.1083C75.0789 28.1033 74.7279 27.9288 74.5316 27.5762C74.4734 27.471 74.4352 27.3573 74.3927 27.2464C72.9956 23.5554 71.5991 19.8638 70.2027 16.1722C70.1677 16.0792 70.1328 15.9862 70.1062 15.8911C69.9698 15.4025 70.2559 14.9261 70.7866 14.7523C71.2781 14.5914 71.8536 14.778 72.1222 15.2023C72.2187 15.3546 72.2811 15.5248 72.3443 15.6915C73.3531 18.3631 74.3587 21.0355 75.37 23.7071C75.444 23.9024 75.4656 24.1255 75.6919 24.3116L75.6902 24.313Z" fill="black"/>
<path d="M57.4754 22.3671C57.4588 22.8042 57.6218 23.1303 57.7815 23.45C58.4701 24.8256 59.6295 25.7604 61.3461 26.0981C63.4104 26.5044 65.4804 25.8843 66.6664 24.3635C66.7546 24.2498 66.8345 24.1296 66.9375 24.0273C67.301 23.6668 67.8974 23.5881 68.3555 23.8313C68.8213 24.0788 69.0134 24.563 68.8022 25.0066C68.734 25.1488 68.63 25.2812 68.526 25.4085C67.2336 26.9793 65.4904 27.897 63.2507 28.078C61.025 28.2576 59.0764 27.7103 57.4563 26.3742C56.3968 25.5001 55.718 24.4265 55.3912 23.199C54.903 21.3636 55.0993 19.5853 56.1364 17.9115C57.1036 16.3507 58.584 15.3236 60.5968 14.8943C64.0773 14.1533 67.7759 15.5668 69.0717 18.9916C69.3536 19.7376 69.5 20.5087 69.495 21.2963C69.4908 21.9808 69.0866 22.3299 68.2799 22.3556C68.1211 22.3606 67.9622 22.3571 67.8034 22.3571C64.6013 22.3571 61.3993 22.3571 58.1973 22.3571C57.9736 22.3571 57.7507 22.3635 57.4762 22.3678L57.4754 22.3671ZM67.1646 20.4029C66.8428 18.0903 64.7992 16.5123 62.246 16.5703C59.7625 16.6268 57.601 18.3643 57.4813 20.3986C57.9844 20.4701 66.4801 20.4779 67.1646 20.4029Z" fill="black"/>
<path d="M102.043 26.7649C101.754 26.9388 101.575 27.0532 101.389 27.1598C99.6979 28.129 97.8592 28.3822 95.9279 27.8737C93.8336 27.3222 92.5478 26.0433 91.8874 24.2786C91.6853 23.7385 91.5722 23.1792 91.5722 22.6076C91.5714 20.3215 91.5672 18.0347 91.5714 15.7486C91.5722 15.2015 91.8117 14.9046 92.3265 14.7587C92.9678 14.5762 93.6539 14.9311 93.7528 15.5069C93.7795 15.6599 93.7662 15.8188 93.7662 15.9754C93.7662 18.0662 93.7712 20.157 93.7637 22.2479C93.7612 22.8208 93.8368 23.3816 94.0705 23.9167C94.5755 25.0718 95.4883 25.8901 96.9155 26.1355C98.6195 26.428 100.057 25.9624 101.133 24.7692C101.799 24.0318 102.059 23.1706 102.06 22.2472C102.064 20.7228 102.061 19.1985 102.061 17.6742C102.061 17.029 102.054 16.3846 102.067 15.7401C102.07 15.5691 102.097 15.3852 102.174 15.2308C102.361 14.8653 102.855 14.6514 103.295 14.7114C103.792 14.7794 104.175 15.097 104.246 15.5176C104.268 15.6521 104.26 15.7908 104.26 15.9275C104.26 19.5819 104.26 23.2357 104.26 26.8901C104.26 27.0268 104.267 27.1655 104.245 27.3C104.164 27.7714 103.707 28.114 103.166 28.1204C102.592 28.1276 102.134 27.7743 102.067 27.2642C102.05 27.1333 102.053 27.0003 102.042 26.7656L102.043 26.7649Z" fill="black"/>
<path d="M43.6099 15.9861C43.8985 15.9375 44.0473 15.778 44.2253 15.6735C45.3281 15.0262 46.5541 14.6907 47.8773 14.7057C50.3981 14.7336 52.2544 15.7265 53.3839 17.6757C53.8446 18.4718 54.075 19.3265 54.08 20.22C54.0867 21.4703 54.0867 22.7213 54.0875 23.9717C54.0884 24.9294 54.0875 25.8866 54.0875 26.8443C54.0875 27.0003 54.0942 27.1583 54.0717 27.3129C54.0093 27.737 53.6201 28.0597 53.1261 28.1125C52.6479 28.164 52.1597 27.918 52.0057 27.5089C51.9309 27.31 51.9151 27.0883 51.9143 26.8765C51.9076 25.0203 51.911 23.1641 51.9102 21.3072C51.9102 20.9166 51.9076 20.5254 51.8993 20.1348C51.8901 19.7214 51.7837 19.323 51.6273 18.9324C50.6193 16.4124 47.2959 15.9088 45.1926 17.4268C44.138 18.1878 43.6539 19.195 43.6016 20.3616C43.5791 20.8688 43.5966 21.3774 43.5966 21.8859C43.5966 23.5075 43.5966 25.1298 43.5966 26.7513C43.5966 26.9273 43.6041 27.104 43.5832 27.2785C43.53 27.7363 43.1416 28.0617 42.606 28.1125C42.127 28.1576 41.662 27.9015 41.5048 27.4852C41.45 27.34 41.4283 27.1805 41.4234 27.026C41.4118 26.6748 41.4192 26.3229 41.4192 25.971C41.4192 22.6684 41.4192 19.3659 41.4192 16.064C41.4192 15.8881 41.4059 15.71 41.4334 15.5369C41.509 15.057 41.9639 14.7057 42.4929 14.7001C43.0602 14.6943 43.5225 15.0548 43.5891 15.5606C43.6065 15.6893 43.6033 15.8202 43.6116 15.9847L43.6099 15.9861Z" fill="black"/>
<path d="M111.843 28.1245C110.87 28.0888 109.985 27.9465 109.164 27.5766C108.358 27.2147 107.708 26.7111 107.274 26.0194C107.179 25.8678 107.101 25.6976 107.069 25.528C106.982 25.0781 107.275 24.6618 107.763 24.5016C108.23 24.3485 108.729 24.4794 109.03 24.8357C109.07 24.8829 109.106 24.9336 109.135 24.9859C109.477 25.5939 110.07 25.9293 110.802 26.0967C111.588 26.2763 112.382 26.2805 113.148 26.0338C114.061 25.7397 114.702 25.2076 114.803 24.3364C114.912 23.3871 114.498 22.943 113.774 22.6576C113.282 22.4637 112.761 22.3214 112.242 22.1833C111.614 22.016 110.969 21.8943 110.345 21.7205C109.894 21.5946 109.45 21.4401 109.026 21.2563C107.127 20.4322 106.733 18.7928 107.218 17.4331C107.723 16.0167 108.895 15.1885 110.525 14.8365C111.675 14.5882 112.826 14.6555 113.94 15.0218C114.881 15.3307 115.636 15.8408 116.143 16.6018C116.211 16.7034 116.283 16.8043 116.331 16.913C116.538 17.3708 116.345 17.8407 115.863 18.0747C115.378 18.3093 114.808 18.2177 114.452 17.8457C114.408 17.8007 114.37 17.752 114.339 17.7005C113.905 16.9917 113.168 16.6934 112.295 16.594C111.601 16.5153 110.927 16.5997 110.323 16.913C109.56 17.3093 109.173 17.8894 109.268 18.6769C109.311 19.0317 109.496 19.3157 109.848 19.4945C110.119 19.6319 110.408 19.757 110.707 19.8379C111.333 20.0081 111.974 20.1383 112.604 20.3C113.168 20.4444 113.73 20.5975 114.284 20.7692C114.559 20.8543 114.822 20.9766 115.076 21.104C116.603 21.875 117.183 23.0724 116.997 24.528C116.792 26.1296 115.707 27.1947 113.991 27.7976C113.396 28.0065 112.44 28.1367 111.845 28.1245H111.843Z" fill="black"/>
<path d="M36.4297 18.1451C36.4005 18.4893 36.3842 18.8342 36.3395 19.1761C36.2338 19.98 36.0584 20.7721 35.8376 21.5553C35.8273 21.5925 35.8032 21.6257 35.7852 21.6606C35.6021 21.6234 35.4646 21.5182 35.3366 21.4019C35.1708 21.2507 35.0057 21.0996 34.8425 20.9468C34.7437 20.8543 34.6345 20.7815 34.4901 20.7657C34.558 20.4563 34.6242 20.1469 34.6947 19.8375C34.8811 19.0234 35.0092 18.2029 35.0204 17.3681C35.0212 17.2898 35.041 17.2122 35.0522 17.1347C35.1338 17.1268 35.193 17.1624 35.2507 17.2122C35.5617 17.4813 35.8762 17.7479 36.1874 18.0169C36.2578 18.0779 36.3206 18.1475 36.4297 18.1451Z" fill="#4E6BFF"/>
<path d="M36.4293 18.145C36.3201 18.1473 36.2574 18.0777 36.187 18.0168C35.8751 17.7478 35.5614 17.4811 35.2502 17.2121C35.1927 17.1622 35.1334 17.1258 35.0518 17.1346C35.0423 17.0966 35.0243 17.0579 35.0251 17.0198C35.032 16.3156 34.9512 15.617 34.8575 14.9191C34.8412 14.7941 34.8481 14.6604 34.8773 14.5377C34.9623 14.1864 35.2614 14.0115 35.5932 13.9949C35.8888 13.9799 36.2368 14.1334 36.3562 14.4831C36.3786 14.5488 36.3993 14.6168 36.4069 14.6856C36.4371 14.961 36.4705 15.2363 36.4877 15.5133C36.5101 15.8884 36.5333 16.265 36.5298 16.64C36.5255 17.095 36.4937 17.55 36.4714 18.0041C36.4688 18.0516 36.4439 18.0983 36.4293 18.145Z" fill="#4E6BFF"/>
<path d="M22.3872 0.853264C22.7326 0.925265 23.0833 0.980653 23.4236 1.07085C25.4362 1.60257 27.3156 2.39698 29.0231 3.51976C31.2025 4.95348 32.971 6.73299 34.2627 8.89939C34.7929 9.78879 35.1873 10.7319 35.4786 11.7107C35.5414 11.9212 35.5328 12.1198 35.4142 12.3136C35.1839 12.6903 34.6056 12.7125 34.334 12.4339C34.2008 12.297 34.1269 12.1349 34.053 11.9695C33.8579 11.5296 33.674 11.0848 33.4626 10.6504C32.8911 9.47699 32.1529 8.39619 31.2617 7.40634C29.6187 5.58173 27.6173 4.18914 25.273 3.21433C24.979 3.09248 24.6791 2.9825 24.3826 2.86698C24.3981 2.78073 24.3569 2.71585 24.2923 2.65729C23.9134 2.30994 23.5353 1.961 23.1572 1.61286C23.1349 1.59229 23.1116 1.57013 23.0841 1.55589C22.8392 1.42375 22.676 1.21012 22.4714 1.03921C22.413 0.990152 22.3838 0.928431 22.3872 0.854845V0.853264Z" fill="#4E6BFF"/>
<path d="M19.9289 3.4385C20.1858 3.45908 20.4437 3.46778 20.698 3.50181C21.8066 3.65214 22.8903 3.88952 23.9421 4.25348C25.3953 4.75671 26.7221 5.46092 27.9183 6.37006C29.1378 7.29661 30.1913 8.36478 31.0619 9.58329C32.0673 10.9902 32.7479 12.5204 33.1226 14.1677C33.1751 14.3996 33.2059 14.6354 33.2472 14.8688C33.1905 14.8443 33.1226 14.8301 33.0787 14.7928C32.6852 14.4558 32.2951 14.1155 31.9049 13.7753C31.8499 13.7278 31.8035 13.67 31.7424 13.6305C31.6136 13.5474 31.501 13.4272 31.3205 13.4398C31.1882 13.1051 31.0635 12.7672 30.9227 12.4349C30.3529 11.0898 29.5408 9.8824 28.4795 8.81821C27.315 7.65029 25.9572 6.719 24.4199 6.01083C23.6095 5.63737 22.7631 5.34856 21.8796 5.15313C21.7859 5.13256 21.694 5.10407 21.6012 5.07954C21.5883 5.02336 21.5883 4.96006 21.5582 4.91338C21.5213 4.85562 21.4611 4.80973 21.4061 4.76225C21.0572 4.4592 20.7083 4.15616 20.356 3.85549C20.2469 3.76212 20.1257 3.68063 20.0191 3.58567C19.9771 3.54849 19.959 3.48756 19.9297 3.43771L19.9289 3.4385Z" fill="#4E6BFF"/>
<path d="M17.0737 9.23957C17.7526 9.10981 18.4358 9.07737 19.1285 9.12724C19.7644 9.17305 20.3892 9.26726 21.0027 9.42316C22.8925 9.90423 24.3997 10.8885 25.541 12.3531C26.2267 13.233 26.745 14.1864 27.0053 15.2475C27.2013 16.0451 27.2992 16.8513 27.1635 17.6687C27.0741 17.6726 26.9976 17.6529 26.9288 17.5935C26.6246 17.33 26.317 17.0697 26.0111 16.807C25.9561 16.7595 25.9087 16.7026 25.8486 16.663C25.7988 16.6305 25.7343 16.6171 25.6768 16.595C25.6372 16.3805 25.6011 16.1661 25.5582 15.9525C25.3837 15.0758 25.0597 14.2513 24.5226 13.5059C23.5052 12.092 22.1036 11.1638 20.3221 10.7319C19.6957 10.5799 19.0546 10.5143 18.4048 10.5467C18.374 10.5483 18.3422 10.538 18.3104 10.5333C18.2949 10.4676 18.3035 10.3805 18.2605 10.3386C18.031 10.1178 17.7922 9.905 17.5498 9.69527C17.4097 9.57423 17.255 9.4682 17.1124 9.34957C17.0858 9.32662 17.0849 9.27753 17.072 9.24034L17.0737 9.23957Z" fill="#4E6BFF"/>
<path d="M15.9111 12.661C16.3124 12.4014 16.7653 12.2479 17.2328 12.1316C17.7768 11.9963 18.3302 11.9576 18.8956 11.9923C19.4371 12.0264 19.9647 12.1079 20.4752 12.2685C21.4711 12.5826 22.2815 13.1365 22.9182 13.9072C23.4743 14.5797 23.8687 15.3187 24.0312 16.1583C24.1712 16.8846 24.1119 17.5991 23.9126 18.3081C23.8671 18.471 23.8086 18.6309 23.751 18.7907C23.7243 18.8659 23.6917 18.9403 23.6531 19.0099C23.4236 19.4261 23.0085 19.4807 22.6115 19.3256C22.4087 19.2465 22.291 19.0977 22.254 18.8967C22.2136 18.6783 22.236 18.4631 22.2961 18.2495C22.358 18.0296 22.4242 17.8088 22.4671 17.5848C22.8246 15.7254 21.4591 13.8604 19.4018 13.4909C18.6894 13.3628 17.989 13.4023 17.3024 13.6271C17.2319 13.65 17.1589 13.6666 17.0875 13.6864C17.0704 13.5756 17.0351 13.4649 16.9311 13.4047C16.7095 13.2758 16.553 13.0834 16.3648 12.9229C16.2299 12.8089 16.095 12.6989 15.9102 12.6593L15.9111 12.661Z" fill="#4E6BFF"/>
<path d="M27.8119 13.0239C27.6925 12.8253 27.5757 12.6252 27.4545 12.4273C26.7481 11.2808 25.7968 10.3337 24.6762 9.52186C23.9148 8.97039 23.0632 8.57636 22.166 8.25591C22.0156 8.20211 21.8635 8.15147 21.7165 8.09133C21.6194 8.05098 21.5206 8.00667 21.4373 7.94575C21.1829 7.76059 21.0926 7.47416 21.188 7.19881C21.2843 6.92188 21.5353 6.7391 21.8549 6.71141C22.0311 6.69637 22.197 6.73594 22.3603 6.78816C23.3622 7.10624 24.3109 7.52401 25.1824 8.08342C26.6974 9.05589 27.9486 10.253 28.8535 11.7445C29.3872 12.6244 29.7584 13.562 30.0085 14.5416C30.0205 14.589 30.0171 14.6397 30.0205 14.6888C29.9036 14.7006 29.8186 14.6531 29.737 14.5803C29.2067 14.108 28.674 13.6387 28.1411 13.1688C28.118 13.1482 28.0938 13.1284 28.0732 13.1062C28.0027 13.0319 27.9125 13.0144 27.8111 13.0247L27.8119 13.0239Z" fill="#4E6BFF"/>
<path d="M20.7445 34.1207C20.4644 34.4087 20.1893 34.7006 19.9031 34.9832C18.5402 36.3251 17.1 37.5927 15.5969 38.7993C14.7289 39.4964 13.8318 40.1642 12.9475 40.8447C12.9234 40.8629 12.8926 40.8748 12.8651 40.8898C12.8315 40.8661 12.7945 40.8455 12.7645 40.8178C12.5668 40.6374 12.3683 40.4577 12.1749 40.2742C12.052 40.1587 11.9215 40.0637 11.7358 40.0558C11.7083 40.0542 11.6825 40.0281 11.655 40.0131C12.0572 39.699 12.4542 39.3801 12.8616 39.0723C14.8639 37.5619 16.7416 35.9279 18.5385 34.2141C18.8676 33.9007 19.1873 33.5795 19.5112 33.2614C19.6934 33.2519 19.8292 33.3216 19.9582 33.4418C20.2108 33.6761 20.4815 33.8952 20.7445 34.1207Z" fill="#4E6BFF"/>
<path d="M22.3258 36.792C22.3155 36.8095 22.3094 36.8308 22.2948 36.8427C21.8824 37.1591 21.573 37.5666 21.1793 37.9006C20.7918 38.2297 20.4249 38.5802 20.0451 38.9181C19.6575 39.2622 19.2673 39.6041 18.8738 39.9435C18.4879 40.2759 18.1046 40.6105 17.7076 40.9294C16.9118 41.5688 16.1092 42.1994 15.3057 42.8292C15.1836 42.9249 15.0488 43.0128 14.9061 43.0776C14.6087 43.2121 14.2538 43.1323 14.0201 42.9147C13.8112 42.7208 13.7347 42.1891 14.0063 41.9573C14.0931 41.8828 14.1774 41.8061 14.2676 41.7357C14.9267 41.2245 15.5884 40.7166 16.2466 40.2038C17.3914 39.3129 18.4595 38.3468 19.5242 37.3767C20.0605 36.8886 20.583 36.3877 21.1124 35.8931C21.1648 35.8441 21.2232 35.8013 21.279 35.7554C21.5747 36.0206 21.8703 36.2848 22.1643 36.5499C22.239 36.6179 22.3258 36.6804 22.3258 36.792Z" fill="#4E6BFF"/>
<path d="M9.56052 24.1167C9.34736 24.3398 9.14026 24.5677 8.92026 24.7853C7.25912 26.4279 5.4708 27.9455 3.59482 29.3777C3.33788 29.5739 3.09125 29.7812 2.83774 29.9806C2.5997 30.1681 2.34618 30.3326 2.04798 30.4347C1.88729 30.4901 1.7326 30.4933 1.57534 30.4458C1.05801 30.2907 0.871525 29.6965 1.2273 29.3064C1.35792 29.1632 1.50744 29.0287 1.67073 28.9187C2.61 28.2841 3.47366 27.5665 4.34934 26.8623C5.69681 25.7783 6.9721 24.6254 8.1709 23.4022C8.22075 23.3516 8.27832 23.3065 8.33245 23.259C8.47425 23.2495 8.56964 23.3191 8.66761 23.4045C8.9237 23.6277 9.18666 23.8437 9.44876 24.0597C9.47972 24.085 9.52265 24.0977 9.56052 24.1167Z" fill="#4E6BFF"/>
<path d="M6.92719 36.1285C7.27007 35.8729 7.61381 35.6181 7.95583 35.3625C9.92463 33.8916 11.8135 32.34 13.5872 30.6705C13.8432 30.4292 14.09 30.1799 14.3434 29.9354C14.4096 29.8721 14.4835 29.8152 14.5539 29.755C14.719 29.7827 14.8436 29.8784 14.9596 29.9789C15.1624 30.1554 15.354 30.3414 15.5525 30.5218C15.6153 30.5795 15.6634 30.642 15.6677 30.7259C15.5912 30.8082 15.519 30.8944 15.4382 30.9719C13.2418 33.0877 10.9043 35.0627 8.41902 36.888C8.30215 36.9743 8.17239 37.0464 8.04951 37.1246C8.01513 37.0756 7.98849 37.0187 7.9438 36.9783C7.61467 36.6847 7.32592 36.3508 6.92805 36.1277L6.92719 36.1285Z" fill="#4E6BFF"/>
<path d="M4.59338 34.1633C4.65783 34.1119 4.71799 34.0557 4.78588 34.0082C7.13707 32.3561 9.34047 30.5497 11.4192 28.6128C11.6908 28.3595 11.9623 28.1056 12.2339 27.8516C12.38 27.8389 12.4995 27.8768 12.6043 27.9805C12.7934 28.1672 12.9919 28.3453 13.1913 28.5225C13.2668 28.5898 13.3562 28.6436 13.4396 28.7029C13.3674 28.775 13.2978 28.8509 13.2213 28.919C13.0916 29.036 12.9334 29.1326 12.8304 29.2663C12.6868 29.4546 12.5124 29.6129 12.3396 29.7735C10.7713 31.2357 9.13251 32.6275 7.40691 33.9315C6.92396 34.2963 6.42467 34.642 5.9314 34.9957C5.89788 35.0194 5.85836 35.0353 5.82141 35.0543C5.74234 34.9894 5.65984 34.9276 5.58336 34.8588C5.39258 34.6871 5.20438 34.5131 5.01704 34.3382C4.90017 34.229 4.76526 34.1586 4.59338 34.1633Z" fill="#4E6BFF"/>
<path d="M2.64981 33.5134C2.3327 33.5103 2.09036 33.3908 1.94599 33.1226C1.80334 32.8576 1.81537 32.6012 2.02162 32.3717C2.13075 32.2506 2.25449 32.1335 2.39372 32.0449C3.57275 31.2909 4.6607 30.4347 5.74263 29.5699C6.22215 29.1861 6.6905 28.7905 7.16659 28.4036C7.27143 28.3181 7.37884 28.2327 7.49743 28.167C7.80336 27.9977 8.09383 28.0285 8.35851 28.2438C8.75725 28.5682 8.7899 28.8815 8.42039 29.2423C8.07406 29.5809 7.70798 29.9054 7.32986 30.2148C6.77472 30.6697 6.2084 31.1128 5.63607 31.548C4.89788 32.1106 4.14852 32.6605 3.40346 33.2159C3.33643 33.2658 3.2694 33.3165 3.19721 33.3592C3.03136 33.4573 2.85176 33.5182 2.64981 33.5134Z" fill="#4E6BFF"/>
<path d="M6.79164 22.6313C6.3697 23.0412 5.9529 23.4558 5.52494 23.8593C4.66644 24.668 3.77787 25.4474 2.84461 26.1824C2.68992 26.3042 2.55501 26.4482 2.40548 26.5764C2.30321 26.6643 2.20095 26.7544 2.08493 26.8241C1.75065 27.0235 1.32613 27.0013 1.02879 26.7806C0.751214 26.5749 0.682467 26.2773 0.841447 25.9814C0.929102 25.8184 1.06402 25.6918 1.21097 25.5731C1.67245 25.2004 2.13478 24.8294 2.5911 24.4511C3.56733 23.6417 4.51262 22.8022 5.40807 21.916C5.45877 21.8662 5.5172 21.8234 5.57307 21.7767C5.77588 21.768 5.90735 21.8915 6.03884 22.0015C6.21242 22.1462 6.36969 22.3084 6.53985 22.4564C6.61546 22.5221 6.70656 22.5736 6.79164 22.6313Z" fill="#4E6BFF"/>
<path d="M18.6994 31.9229C18.6814 31.9475 18.6668 31.9743 18.6453 31.9957C17.4766 33.1905 16.2811 34.3615 14.9784 35.4352C14.9225 35.4819 14.8684 35.5309 14.8082 35.5721C14.461 35.8087 13.9738 35.7422 13.7152 35.4241C13.5192 35.1836 13.5046 34.8956 13.6894 34.6487C13.7624 34.5514 13.8518 34.4636 13.9437 34.3805C15.121 33.3178 16.2872 32.2441 17.4044 31.1269C17.4259 31.1055 17.4542 31.0905 17.4791 31.0723C17.5745 31.1119 17.6836 31.1356 17.7618 31.195C17.9887 31.3674 18.2035 31.5542 18.4218 31.7362C18.5069 31.8073 18.5774 31.8968 18.6994 31.9229Z" fill="#4E6BFF"/>
<path d="M22.3874 0.85322C22.384 0.926806 22.4132 0.988527 22.4717 1.03758C22.6761 1.20928 22.8394 1.42292 23.0844 1.55426C23.1119 1.56929 23.1351 1.59066 23.1574 1.61123C23.5364 1.95937 23.9137 2.30832 24.2926 2.65567C24.3571 2.71422 24.3975 2.7791 24.3829 2.86535C24.0554 2.76882 23.7298 2.66912 23.4015 2.57734C22.5464 2.3368 21.6767 2.16194 20.7899 2.04958C20.1591 1.96967 19.5275 1.9301 18.8915 1.92456C18.7635 1.92298 18.6355 1.90795 18.5066 1.90003C18.5126 1.81379 18.4636 1.75365 18.4 1.69669C18.0494 1.38335 17.7022 1.06686 17.349 0.755105C17.2768 0.691015 17.227 0.622177 17.2115 0.531975C18.046 0.456808 18.8813 0.429114 19.7191 0.501908C20.0499 0.531184 20.3835 0.540679 20.7134 0.578658C21.2762 0.64354 21.8409 0.702092 22.3874 0.85322Z" fill="#4E6BFF"/>
<path d="M18.8805 43.5741C18.426 43.5702 18.1578 43.3407 18.1243 42.9696C18.1002 42.7092 18.1845 42.4774 18.3718 42.2828C18.4715 42.18 18.584 42.085 18.7026 42.0003C18.9673 41.8112 19.2054 41.596 19.4494 41.3863C20.0407 40.8791 20.6439 40.3838 21.2446 39.8861C21.3082 39.8339 21.3804 39.788 21.4551 39.7493C21.7508 39.5941 22.0111 39.6123 22.2639 39.7999C22.5268 39.9945 22.6178 40.2548 22.5276 40.5405C22.4847 40.6774 22.409 40.7968 22.2999 40.895C21.7301 41.4077 21.1939 41.952 20.5692 42.4141C20.2005 42.6872 19.8653 42.9981 19.5165 43.294C19.3884 43.4024 19.2526 43.4989 19.079 43.5369C18.9957 43.5551 18.9114 43.5678 18.8805 43.5741Z" fill="#4E6BFF"/>
<path d="M19.9286 3.43845C19.9578 3.4883 19.9759 3.54843 20.0181 3.58641C20.1246 3.68137 20.2458 3.76286 20.3549 3.85623C20.7064 4.1569 21.0553 4.45995 21.405 4.76299C21.4592 4.81047 21.5193 4.85636 21.5571 4.91412C21.5872 4.96081 21.5872 5.0241 21.6001 5.08028C20.9255 4.95289 20.2432 4.86269 19.5565 4.82392C18.9662 4.79068 18.3732 4.78277 17.7828 4.84212C17.2698 4.89355 16.7567 4.94182 16.2446 4.99087C16.2489 4.87852 16.1603 4.81758 16.0864 4.74874C15.8098 4.49317 15.5304 4.23998 15.2563 3.98204C15.1841 3.9132 15.1274 3.83012 15.0638 3.75337C15.5064 3.6236 15.9644 3.56268 16.4208 3.497C17.2965 3.37198 18.1781 3.34746 19.0616 3.37594C19.3511 3.38543 19.6399 3.41788 19.9295 3.44004L19.9286 3.43845Z" fill="#4E6BFF"/>
<path d="M31.3195 13.4386C31.5 13.4268 31.6125 13.5463 31.7414 13.6294C31.8025 13.6689 31.8489 13.7267 31.9039 13.7742C32.294 14.1144 32.6841 14.4554 33.0778 14.7917C33.1216 14.8289 33.1895 14.8431 33.2462 14.8677C33.2849 15.0718 33.3339 15.2744 33.3596 15.4801C33.4654 16.3267 33.4954 17.1741 33.4061 18.0255C33.363 18.429 33.3244 18.8317 33.2522 19.2321C33.2453 19.2701 33.229 19.3073 33.217 19.3453C33.0623 19.2938 32.9351 19.2052 32.8277 19.0921C32.5733 18.8239 32.2605 18.6142 31.9761 18.3753C31.94 18.3452 31.8798 18.3396 31.8308 18.323C31.836 18.1845 31.8308 18.0445 31.848 17.9076C31.9176 17.383 31.9108 16.8561 31.8764 16.3323C31.8197 15.469 31.6581 14.62 31.4089 13.7852C31.3745 13.6713 31.3487 13.5542 31.3195 13.4386Z" fill="#4E6BFF"/>
<path d="M5.05734 20.1176C4.98344 20.2022 4.9147 20.2909 4.83563 20.3708C4.01839 21.2032 3.15559 21.9944 2.27819 22.7722C1.87257 23.1314 1.33977 23.0974 1.01235 22.7026C0.863687 22.5238 0.815562 22.3259 0.917826 22.1163C0.970248 22.0086 1.04071 21.9066 1.11633 21.8117C1.17993 21.7326 1.25899 21.6629 1.33805 21.5964C2.2017 20.8756 2.98974 20.0876 3.7709 19.2931C3.82074 19.2425 3.87831 19.1966 3.93159 19.1491C4.07339 19.1665 4.19111 19.2266 4.2908 19.3192C4.5065 19.5194 4.72392 19.7196 4.94134 19.9182C5.00321 19.9744 5.05391 20.0345 5.05649 20.1184L5.05734 20.1176Z" fill="#4E6BFF"/>
<path d="M17.2129 0.531322C17.2276 0.621523 17.2775 0.690363 17.3505 0.754453C17.7028 1.0662 18.0508 1.3827 18.4014 1.69603C18.465 1.753 18.514 1.81314 18.5081 1.89938C18.4238 1.90888 18.3396 1.92549 18.2545 1.92707C16.8555 1.95714 15.4865 2.16603 14.1416 2.51497C14.06 2.53633 13.974 2.54029 13.8899 2.55216C13.779 2.44771 13.669 2.34248 13.5573 2.23883C13.3313 2.02994 13.1044 1.82105 12.8775 1.61216C12.8173 1.55677 12.7512 1.50376 12.7504 1.41514C13.107 1.30595 13.461 1.18963 13.821 1.08994C14.6993 0.846237 15.5991 0.696693 16.5066 0.585127C16.7403 0.556642 16.9775 0.547937 17.2129 0.529739V0.531322Z" fill="#4E6BFF"/>
<path d="M17.1992 15.3097C17.5755 15.0193 18.0155 14.8903 18.5002 14.8626C19.7437 14.7906 20.6924 15.6388 20.9253 16.5337C20.994 16.798 21.0139 17.0686 20.9485 17.3281C20.8471 17.7309 20.7234 18.1304 20.5326 18.5079C20.4655 18.4802 20.3873 18.4644 20.335 18.4216C20.0771 18.2135 19.8219 18.0039 19.5761 17.7831C19.473 17.6905 19.3647 17.6557 19.2289 17.6676C19.2763 17.5054 19.3286 17.3447 19.3682 17.181C19.3888 17.0955 19.4017 17.0029 19.3914 16.9167C19.3458 16.5076 18.9832 16.2473 18.5295 16.2972C18.4349 16.3074 18.3438 16.3414 18.251 16.3652C18.2338 16.3193 18.2295 16.2608 18.196 16.2299C17.9665 16.0218 17.7663 15.7868 17.4948 15.6175C17.3711 15.5407 17.2568 15.4457 17.1992 15.3097Z" fill="#4E6BFF"/>
<path d="M17.0737 9.23931C17.0866 9.27649 17.0866 9.32636 17.1141 9.34845C17.2567 9.46716 17.4114 9.57319 17.5515 9.69424C17.7938 9.90311 18.0328 10.1159 18.2622 10.3375C18.3051 10.3794 18.2966 10.4657 18.312 10.5321C18.0577 10.567 17.8033 10.5962 17.5498 10.6366C16.3682 10.8257 15.2768 11.2119 14.3195 11.8907C14.2946 11.9081 14.2636 11.9193 14.2361 11.9335C14.2111 11.7823 14.072 11.7119 13.9663 11.6209C13.8502 11.522 13.724 11.4342 13.6062 11.336C13.5117 11.2578 13.424 11.1723 13.3355 11.0877C13.2737 11.0283 13.2015 10.9927 13.113 10.9847C13.363 10.7489 13.6629 10.5741 13.9585 10.3953C14.8007 9.8849 15.7082 9.50909 16.6939 9.30255C16.8194 9.27649 16.9474 9.26062 17.0737 9.23931Z" fill="#4E6BFF"/>
<path d="M8.52069 38.6234C8.55935 38.5893 8.59459 38.5521 8.6367 38.5229C9.54937 37.8931 10.425 37.222 11.2989 36.5471C11.397 36.4712 11.501 36.396 11.6135 36.3414C12.0939 36.1087 12.6567 36.3746 12.7402 36.8676C12.7702 37.0433 12.7203 37.2047 12.613 37.3463C12.5459 37.4349 12.4677 37.5204 12.3775 37.5884C11.5285 38.2277 10.676 38.863 9.8235 39.4985C9.80797 39.5103 9.78478 39.5142 9.76589 39.5214C9.69453 39.4645 9.6198 39.4099 9.55274 39.3489C9.36373 39.178 9.17466 39.0079 8.99248 38.8322C8.86185 38.7065 8.71318 38.6265 8.52155 38.6225L8.52069 38.6234Z" fill="#4E6BFF"/>
<path d="M25.678 16.5941C25.7356 16.6163 25.8001 16.6298 25.8499 16.6622C25.91 16.7018 25.9574 16.7587 26.0124 16.8062C26.3183 17.0681 26.6259 17.3284 26.9301 17.5927C26.9989 17.652 27.0754 17.6719 27.1647 17.6679C27.1725 17.9978 27.0916 18.3191 27.0221 18.638C26.8296 19.5162 26.5065 20.3573 26.1386 21.1842C26.1267 21.2102 26.1035 21.2324 26.0854 21.2569C26.0553 21.2301 26.0295 21.1968 25.9943 21.177C25.7743 21.052 25.5887 20.8906 25.4108 20.7197C25.3146 20.6271 25.2114 20.5417 25.1169 20.4475C25.0378 20.3684 24.9416 20.3399 24.8298 20.3431C24.8694 20.2307 24.9029 20.1168 24.9484 20.006C25.2398 19.2923 25.4839 18.5652 25.5852 17.8064C25.6385 17.4052 25.6488 16.9977 25.678 16.5941Z" fill="#4E6BFF"/>
<path d="M7.57072 5.89696C7.28628 6.1193 7.04824 6.38437 6.78956 6.63044C6.52746 6.87889 6.27739 7.14 6.04106 7.40902C5.75662 7.73185 5.4928 8.07051 5.21952 8.40124C5.17397 8.45584 5.12499 8.50727 5.07773 8.56107C4.98663 8.55791 4.9196 8.51518 4.85429 8.45979C4.53289 8.18919 4.20891 7.92096 3.8858 7.65194C3.90384 7.61712 3.91674 7.57835 3.9408 7.5467C4.6343 6.63994 5.41718 5.80359 6.29715 5.04479C6.32809 5.01868 6.3659 4.99889 6.40027 4.97595C6.51972 4.97675 6.5902 5.0535 6.66496 5.12312C6.88324 5.3241 7.09807 5.52744 7.32065 5.72368C7.39541 5.79014 7.48822 5.83999 7.57244 5.89696H7.57072Z" fill="#4E6BFF"/>
<path d="M12.7497 1.4167C12.7505 1.50453 12.8167 1.55755 12.8769 1.61372C13.1037 1.82261 13.3305 2.03071 13.5566 2.24039C13.6683 2.34404 13.7783 2.44927 13.8892 2.55371C13.67 2.62889 13.4534 2.70959 13.2318 2.77764C12.8596 2.89158 12.4936 3.0158 12.1438 3.1788C11.5904 3.43674 11.0378 3.69707 10.4852 3.9558C10.4672 3.9645 10.444 3.96529 10.4234 3.96925C10.3133 3.80151 10.1965 3.64168 10.0006 3.54515C9.95588 3.52299 9.92408 3.47789 9.8863 3.44387C9.71954 3.29432 9.56831 3.12974 9.36723 3.0158C9.34317 3.00235 9.33371 2.96754 9.31738 2.94222C9.34918 2.9169 9.37836 2.88683 9.41362 2.86705C10.4431 2.29103 11.5242 1.81232 12.6569 1.43253C12.6861 1.42224 12.7187 1.42145 12.7497 1.4167Z" fill="#4E6BFF"/>
<path d="M27.8122 13.0241C27.9128 13.0146 28.0039 13.0312 28.0744 13.1063C28.095 13.1285 28.1191 13.1483 28.1423 13.1689C28.6742 13.6389 29.2078 14.108 29.7381 14.5804C29.8198 14.6532 29.9057 14.7015 30.0217 14.6888C30.0801 14.9389 30.154 15.1866 30.1944 15.4389C30.2907 16.0442 30.3559 16.6535 30.3551 17.2667C30.3551 17.4621 30.3732 17.6615 30.3009 17.8523C30.1953 17.8506 30.1239 17.7937 30.0543 17.7288C29.9117 17.5951 29.7605 17.4693 29.6247 17.33C29.4167 17.1163 29.1632 16.9502 28.9312 16.7619C28.8951 16.7326 28.834 16.7286 28.7843 16.7128C28.7705 16.6353 28.7482 16.5586 28.743 16.4802C28.6725 15.3345 28.3674 14.241 27.8758 13.1886C27.851 13.1349 27.8329 13.0778 27.8114 13.0224L27.8122 13.0241Z" fill="#4E6BFF"/>
<path d="M31.8911 26.8984C31.9374 26.7995 31.9787 26.6983 32.0312 26.6017C32.4719 25.7899 32.8974 24.9717 33.2591 24.1267C33.2823 24.0721 33.3184 24.0223 33.3485 23.97C33.4697 23.9732 33.5728 24.0041 33.6639 24.0879C33.9286 24.3292 34.1718 24.5919 34.482 24.789C34.5404 24.8262 34.5748 24.8943 34.6203 24.948C34.5335 25.1593 34.4545 25.3737 34.3599 25.5818C34.0497 26.2639 33.7198 26.938 33.3244 27.5828C33.2669 27.6763 33.2007 27.7649 33.1379 27.8558C33.0177 27.8558 32.9481 27.7791 32.8733 27.7103C32.6258 27.4824 32.3783 27.2545 32.1308 27.0258C32.063 26.9633 31.9994 26.8961 31.8911 26.8984Z" fill="#4E6BFF"/>
<path d="M15.9107 12.6608C16.0955 12.7003 16.2312 12.8103 16.3653 12.9243C16.5543 13.0849 16.7099 13.2763 16.9316 13.4061C17.0356 13.4662 17.0709 13.577 17.088 13.6878C17.0424 13.7132 16.9995 13.7416 16.9523 13.7629C15.9777 14.2077 15.3272 14.9158 14.9517 15.8479C14.9216 15.9215 14.8881 15.9943 14.8563 16.0678C14.7669 16.0639 14.6947 16.0299 14.6285 15.9729C14.3561 15.7387 14.0794 15.5077 13.8062 15.2734C13.7426 15.2188 13.6824 15.1634 13.5879 15.1643C13.599 15.1168 13.6016 15.0653 13.6214 15.0211C14.0725 13.9917 14.8477 13.2242 15.8789 12.6655C15.8875 12.6608 15.8996 12.6623 15.9107 12.6608Z" fill="#4E6BFF"/>
<path d="M3.88512 7.65181C4.20824 7.92083 4.53221 8.18907 4.85361 8.45967C4.91893 8.51506 4.98595 8.55858 5.07705 8.56095C5.04611 8.61238 5.01775 8.66541 4.98251 8.71528C4.35949 9.59356 3.80863 10.5066 3.397 11.4869C3.3781 11.5321 3.34888 11.5732 3.32396 11.6167C3.20966 11.5004 3.11169 11.3636 2.97678 11.2741C2.82725 11.1752 2.70178 11.0573 2.5703 10.9426C2.48522 10.8682 2.401 10.7915 2.32023 10.7131C2.25492 10.6498 2.175 10.6348 2.08649 10.6395C2.13977 10.5113 2.18617 10.38 2.24804 10.2558C2.6614 9.41945 3.1581 8.62504 3.70465 7.85675C3.75707 7.78395 3.82496 7.71985 3.88512 7.65181Z" fill="#4E6BFF"/>
<path d="M2.08767 10.6394C2.17619 10.6346 2.25611 10.6496 2.32142 10.713C2.4022 10.7913 2.48642 10.8672 2.5715 10.9425C2.70212 11.0571 2.82758 11.1751 2.97797 11.2739C3.11289 11.3634 3.21086 11.5002 3.32515 11.6165C3.06047 12.3595 2.76571 13.0922 2.35408 13.779C2.28705 13.8906 2.20197 13.9958 2.10831 14.09C1.89089 14.3091 1.4973 14.4176 1.10371 14.2111C0.876844 14.0916 0.765125 13.9135 0.790047 13.6699C0.809812 13.4705 0.874264 13.2821 0.956758 13.0985C1.09254 12.7971 1.22918 12.4957 1.36668 12.1941C1.58238 11.7194 1.79807 11.2447 2.01463 10.7707C2.03525 10.7257 2.06361 10.6837 2.08853 10.6402L2.08767 10.6394Z" fill="#4E6BFF"/>
<path d="M31.8314 18.3226C31.8804 18.3393 31.9405 18.3448 31.9766 18.3748C32.2602 18.6138 32.5731 18.8235 32.8283 19.0918C32.9357 19.2049 33.0628 19.2935 33.2175 19.3449C33.1488 19.8766 33.0002 20.3925 32.8369 20.9037C32.6736 21.4148 32.4777 21.9173 32.2938 22.4221C32.2774 22.4672 32.2465 22.5083 32.2216 22.551C32.164 22.5281 32.0918 22.5186 32.0523 22.4799C31.8143 22.2528 31.5478 22.0542 31.2961 21.8421C31.1826 21.7471 31.0683 21.7029 30.9222 21.7155C30.9411 21.649 30.9549 21.581 30.9798 21.5161C31.3261 20.6283 31.5839 19.72 31.7498 18.7887C31.7772 18.6328 31.8048 18.4761 31.8323 18.3203L31.8314 18.3226Z" fill="#4E6BFF"/>
<path d="M9.56127 24.1167C9.52349 24.0985 9.48047 24.0858 9.44951 24.0597C9.18745 23.8429 8.92363 23.6277 8.6684 23.4046C8.57129 23.3191 8.47505 23.2494 8.33325 23.2589C8.36333 23.2186 8.3891 23.1743 8.42435 23.1379C9.15824 22.3743 9.85859 21.5847 10.4954 20.7499C10.5254 20.7104 10.565 20.6764 10.6002 20.6391C10.7747 20.6233 10.9053 20.6882 11.0231 20.8069C11.1967 20.9818 11.3822 21.1463 11.5679 21.3102C11.6444 21.3774 11.7337 21.4304 11.8179 21.4906C11.5885 21.7872 11.3719 22.0934 11.127 22.3791C10.6526 22.9314 10.1628 23.4718 9.67818 24.0162C9.64461 24.0542 9.60084 24.0834 9.56127 24.1167Z" fill="#4E6BFF"/>
<path d="M34.6201 24.9482C34.5746 24.8943 34.5402 24.8255 34.4817 24.7891C34.1715 24.5913 33.9283 24.3294 33.6636 24.0881C33.5717 24.0042 33.4694 23.9734 33.3483 23.9702C33.4626 23.683 33.5785 23.3965 33.692 23.1085C33.9661 22.4122 34.2076 21.7064 34.413 20.9903C34.4345 20.9144 34.4637 20.84 34.4895 20.7649C34.6339 20.7807 34.743 20.8535 34.8418 20.9461C35.0051 21.0988 35.17 21.2507 35.336 21.401C35.464 21.5182 35.6015 21.6233 35.7845 21.6597C35.7725 21.7278 35.7673 21.7974 35.7484 21.8639C35.4605 22.8474 35.1168 23.8144 34.7215 24.7654C34.6948 24.8287 34.6536 24.888 34.6201 24.9482Z" fill="#4E6BFF"/>
<path d="M9.31565 2.9421C9.33198 2.96741 9.34143 3.00223 9.36554 3.01568C9.56746 3.12962 9.71785 3.29499 9.88451 3.44374C9.92239 3.47777 9.95418 3.52287 9.9988 3.54502C10.1947 3.64077 10.3116 3.80139 10.4216 3.96913C10.4148 3.97704 10.4105 3.98732 10.4019 3.99208C9.47094 4.54015 8.54539 5.16576 7.62529 5.8689C7.60897 5.88157 7.58834 5.88869 7.5703 5.89818C7.48608 5.84042 7.39327 5.79137 7.3185 5.7249C7.09593 5.52788 6.8811 5.32532 6.66282 5.12435C6.58805 5.05551 6.51758 4.97876 6.39813 4.97718C6.6104 4.79677 6.81664 4.60925 7.03578 4.43675C7.70779 3.91058 8.42106 3.43504 9.17128 3.00777C9.21596 2.98245 9.26667 2.96504 9.31479 2.94368L9.31565 2.9421Z" fill="#4E6BFF"/>
<path d="M18.6996 31.923C18.5785 31.8969 18.508 31.8075 18.422 31.7363C18.2037 31.5543 17.9889 31.3676 17.7621 31.1951C17.6848 31.1358 17.5747 31.1128 17.4794 31.0725C17.5387 31.0036 17.597 30.934 17.6589 30.8667C18.2338 30.2409 18.8096 29.6158 19.3845 28.9891C19.5289 28.8316 19.6681 28.6702 19.8099 28.5104C19.9689 28.523 20.0771 28.6141 20.1837 28.7106C20.4458 28.9487 20.7114 29.1837 20.9752 29.4203C20.6632 29.7898 20.3608 30.1657 20.0385 30.5273C19.6776 30.9308 19.2995 31.3225 18.9265 31.7173C18.8569 31.7909 18.7753 31.855 18.6996 31.923Z" fill="#4E6BFF"/>
<path d="M15.0645 3.75134C15.1281 3.82809 15.1839 3.91117 15.2569 3.98001C15.5311 4.23795 15.8103 4.49115 16.0871 4.74672C16.161 4.81556 16.2495 4.87648 16.2452 4.98884C15.9341 5.05927 15.623 5.1281 15.3119 5.19932C14.5626 5.37022 13.8425 5.61788 13.1386 5.90827C13.0312 5.95258 12.9238 5.99452 12.8155 6.03724C12.8215 5.95337 12.7957 5.88374 12.7287 5.82281C12.3987 5.5261 12.0963 5.20248 11.7009 4.97302C11.8195 4.90814 11.9355 4.83613 12.0584 4.77917C12.9117 4.38117 13.796 4.05597 14.7215 3.82809C14.835 3.8004 14.951 3.77745 15.0653 3.75213L15.0645 3.75134Z" fill="#4E6BFF"/>
<path d="M4.22418 13.4989C4.33848 13.2337 4.45364 12.9687 4.56621 12.702C4.74925 12.2701 4.92628 11.8364 5.11362 11.406C5.25713 11.0776 5.40408 10.7493 5.6258 10.4565C5.73837 10.451 5.82947 10.4866 5.91024 10.5625C6.17836 10.8149 6.45249 11.0626 6.72233 11.3142C6.75928 11.3482 6.78249 11.3941 6.81257 11.4345C6.68023 11.7257 6.54187 12.0144 6.4164 12.308C6.19726 12.8231 5.98844 13.3414 5.76931 13.8565C5.6997 14.0211 5.60947 14.1778 5.52869 14.3383C5.46166 14.3106 5.38259 14.2956 5.33017 14.2529C5.07237 14.0448 4.81628 13.8343 4.57137 13.6144C4.46825 13.5218 4.35996 13.4854 4.22418 13.4989Z" fill="#4E6BFF"/>
<path d="M27.4333 28.3885C27.4599 28.3354 27.4831 28.28 27.5141 28.2294C27.9 27.6011 28.2866 26.9729 28.6742 26.3454C28.7223 26.2679 28.7687 26.1896 28.8237 26.1168C28.8727 26.0519 28.926 25.9886 28.987 25.9339C29.3625 25.5938 29.9702 25.6879 30.209 26.1207C30.2915 26.2695 30.2984 26.4277 30.2546 26.5836C30.2202 26.707 30.1738 26.8321 30.1068 26.9428C29.6565 27.685 29.1993 28.424 28.743 29.163C28.7275 29.1876 28.7008 29.2066 28.6794 29.2279C28.5883 29.2256 28.5204 29.1836 28.4594 29.1258C28.3709 29.042 28.2789 28.9621 28.1904 28.8774C28.0289 28.7231 27.857 28.5814 27.6688 28.4549C27.594 28.405 27.5201 28.386 27.4341 28.3892L27.4333 28.3885Z" fill="#4E6BFF"/>
<path d="M4.22493 13.499C4.36071 13.4863 4.469 13.5228 4.57212 13.6145C4.81703 13.8345 5.07312 14.045 5.33093 14.2531C5.38335 14.2959 5.46241 14.3109 5.52944 14.3386C5.50796 14.394 5.48991 14.4509 5.46327 14.504C5.01469 15.3901 4.4561 16.2146 3.82017 16.9956C3.79526 17.0264 3.76174 17.0517 3.73252 17.0802C3.61565 17.0802 3.53745 17.0161 3.46097 16.9449C3.27449 16.7708 3.08371 16.6007 2.89895 16.425C2.7752 16.308 2.63427 16.2304 2.45209 16.232C2.4667 16.2059 2.477 16.1766 2.49677 16.1545C3.1705 15.4147 3.67581 14.5823 4.10806 13.7079C4.14329 13.6367 4.18627 13.5679 4.22579 13.4983L4.22493 13.499Z" fill="#4E6BFF"/>
<path d="M31.8921 26.8984C32.0004 26.896 32.064 26.9641 32.1319 27.0265C32.3794 27.2545 32.6269 27.4823 32.8744 27.711C32.9491 27.7799 33.0187 27.8573 33.1391 27.8566C33.1081 27.9191 33.0832 27.9848 33.0463 28.0441C32.5418 28.8488 32.0356 29.6527 31.5286 30.4566C31.4968 30.5073 31.4547 30.5532 31.4169 30.6006C31.3155 30.5982 31.2398 30.5508 31.1676 30.4883C30.9133 30.2698 30.6538 30.057 30.4003 29.8379C30.3332 29.7801 30.2619 29.7524 30.1717 29.7587C30.231 29.655 30.2894 29.5499 30.3513 29.447C30.8205 28.6637 31.2897 27.8795 31.7607 27.097C31.8019 27.0289 31.8483 26.9648 31.8921 26.8984Z" fill="#4E6BFF"/>
<path d="M24.8302 20.3434C24.9418 20.3402 25.0382 20.3679 25.1172 20.4478C25.2108 20.542 25.3148 20.6282 25.411 20.7199C25.5889 20.8909 25.7746 21.0523 25.9945 21.1773C26.0298 21.197 26.0556 21.2303 26.0856 21.2573C25.9757 21.5128 25.8786 21.7739 25.754 22.0223C25.4137 22.7012 25.063 23.3754 24.7141 24.0503C24.6824 24.1112 24.6351 24.1651 24.5955 24.222C24.5148 24.1587 24.4297 24.1002 24.3541 24.0313C24.1401 23.839 23.9261 23.6459 23.7198 23.4458C23.6227 23.3509 23.5144 23.3105 23.3778 23.3255C23.5729 22.9433 23.7766 22.5643 23.9622 22.1782C24.2251 21.6299 24.4744 21.0752 24.7313 20.5245C24.7606 20.462 24.7975 20.4027 24.8318 20.3426L24.8302 20.3434Z" fill="#4E6BFF"/>
<path d="M12.5668 25.3136C12.3958 25.5027 12.2325 25.6989 12.052 25.881C11.6326 26.305 11.2056 26.7228 10.7802 27.1414C10.714 27.2062 10.6453 27.2703 10.5679 27.3225C10.3213 27.4903 10.0025 27.4903 9.72145 27.3352C9.44134 27.181 9.30382 26.912 9.36315 26.6334C9.39916 26.4633 9.46023 26.3098 9.59341 26.1855C10.2294 25.5961 10.8335 24.9797 11.4204 24.3491C11.4273 24.342 11.4393 24.3396 11.4488 24.3348C11.5717 24.3348 11.6369 24.4195 11.7152 24.486C11.9747 24.7076 12.1947 24.9686 12.4904 25.1562C12.5341 25.1839 12.5427 25.2598 12.5668 25.3136Z" fill="#4E6BFF"/>
<path d="M23.3762 23.3269C23.5129 23.3111 23.6212 23.3523 23.7183 23.4472C23.9236 23.6473 24.1385 23.8396 24.3525 24.0327C24.4281 24.1008 24.5132 24.1601 24.5939 24.2234C24.5699 24.278 24.551 24.3342 24.5209 24.3856C24.0303 25.2251 23.5189 26.0535 22.956 26.8542C22.9277 26.8946 22.889 26.9287 22.8547 26.9659C22.773 26.9033 22.6871 26.8464 22.6123 26.7783C22.3914 26.5797 22.1723 26.3788 21.9566 26.1754C21.8775 26.1002 21.7907 26.0552 21.6747 26.067C21.6971 26.0226 21.7151 25.976 21.7426 25.9357C22.3003 25.1301 22.8091 24.2994 23.2921 23.4543C23.317 23.4108 23.3479 23.3705 23.3754 23.3285L23.3762 23.3269Z" fill="#4E6BFF"/>
<path d="M29.5786 20.7883C29.5615 20.8547 29.5486 20.9228 29.5254 20.9877C29.2332 21.8129 28.8861 22.62 28.5123 23.4167C28.4873 23.4698 28.4495 23.518 28.4177 23.5686C28.3687 23.5536 28.3077 23.5504 28.2716 23.522C28.0628 23.359 27.8574 23.1921 27.6545 23.0227C27.5532 22.9381 27.4586 22.8455 27.3624 22.7552C27.3082 22.7046 27.2481 22.6691 27.1682 22.6691C27.1949 22.5947 27.2154 22.5171 27.2481 22.4451C27.6383 21.5969 27.9914 20.7369 28.2784 19.8546C28.2845 19.8364 28.2973 19.819 28.3068 19.8016C28.4444 19.7984 28.5492 19.8514 28.6454 19.9424C28.7932 20.084 28.9487 20.217 29.1198 20.338C29.2951 20.4622 29.467 20.603 29.5786 20.7883Z" fill="#4E6BFF"/>
<path d="M14.626 8.43279C14.5701 8.45969 14.5151 8.49055 14.4576 8.51428C13.5448 8.89016 12.701 9.3657 11.95 9.97575C11.919 10.001 11.8794 10.0185 11.8442 10.0398C11.8425 9.93934 11.7738 9.87998 11.693 9.82779C11.3527 9.60623 11.094 9.30471 10.7889 9.04838C10.831 9.00481 10.8697 8.95659 10.917 8.91863C11.6724 8.31489 12.4931 7.799 13.3833 7.37885C13.4486 7.34799 13.5217 7.329 13.5904 7.30447C13.6601 7.37885 13.7254 7.45639 13.8001 7.52603C14.033 7.7444 14.2676 7.96042 14.5048 8.17485C14.5856 8.24843 14.6397 8.32676 14.6251 8.43516L14.626 8.43279Z" fill="#4E6BFF"/>
<path d="M13.5879 15.1651C13.6833 15.1634 13.7426 15.2197 13.8062 15.2742C14.0794 15.5084 14.3561 15.7387 14.6286 15.9737C14.6947 16.0307 14.7669 16.0647 14.8563 16.0686C14.687 16.6003 14.455 17.1107 14.2127 17.6163C14.0133 18.0317 13.7898 18.4369 13.575 18.8459C13.5475 18.8982 13.5054 18.9432 13.4702 18.9923C13.1702 18.6173 12.7672 18.3411 12.3865 18.0428C12.365 18.0262 12.3255 18.0302 12.2937 18.0246C12.3161 17.97 12.3323 17.913 12.3607 17.8608C12.8024 17.0379 13.1831 16.1921 13.5106 15.3257C13.5311 15.2711 13.5612 15.2188 13.587 15.1659L13.5879 15.1651Z" fill="#4E6BFF"/>
<path d="M30.1707 29.7588C30.2601 29.7525 30.3324 29.7802 30.3994 29.838C30.6529 30.0564 30.9132 30.27 31.1668 30.4884C31.239 30.5509 31.3137 30.5984 31.416 30.6007C31.1453 31.0153 30.8798 31.4331 30.6013 31.843C30.3289 32.2449 30.0436 32.6406 29.7626 33.0378C29.7162 33.1034 29.6594 33.1628 29.6071 33.2253C29.4584 33.1794 29.3733 33.0615 29.2693 32.9665C29.0012 32.722 28.7133 32.4997 28.397 32.3098C28.4151 32.2742 28.4288 32.2362 28.453 32.2045C29.033 31.4402 29.5761 30.6553 30.0943 29.8546C30.1157 29.8205 30.1459 29.7905 30.1707 29.7588Z" fill="#4E6BFF"/>
<path d="M27.1688 22.6696C27.2487 22.6696 27.3088 22.7051 27.363 22.7558C27.4592 22.846 27.5538 22.9386 27.6551 23.0232C27.858 23.1926 28.0634 23.3595 28.2722 23.5225C28.3092 23.551 28.3693 23.5542 28.4183 23.5692C28.2946 23.8303 28.1836 24.097 28.0462 24.3518C27.7222 24.9507 27.3871 25.5449 27.0536 26.1391C27.0201 26.1993 26.9719 26.2523 26.9298 26.3085C26.8087 26.3085 26.7382 26.2309 26.6626 26.1613C26.4358 25.9524 26.2072 25.7435 25.982 25.533C25.9046 25.4603 25.8264 25.3962 25.7053 25.4112C25.7362 25.3487 25.7646 25.2846 25.7998 25.2236C26.2639 24.4301 26.6953 23.6206 27.0888 22.7954C27.1104 22.751 27.1421 22.7116 27.1688 22.6696Z" fill="#4E6BFF"/>
<path d="M20.7447 34.1214C20.4817 33.8959 20.2119 33.6767 19.9593 33.4425C19.8304 33.323 19.6946 33.2526 19.5125 33.2621C19.564 33.1996 19.6121 33.1331 19.6688 33.0745C20.1707 32.5555 20.6734 32.038 21.177 31.5206C21.2415 31.4541 21.3059 31.3861 21.3781 31.3267C21.5354 31.1977 21.7176 31.1226 21.9333 31.1162C22.5108 31.1012 22.8871 31.6155 22.6456 32.1014C22.5923 32.2082 22.5176 32.3102 22.4334 32.3981C21.8912 32.9638 21.3438 33.5248 20.798 34.0865C20.7843 34.1008 20.7628 34.1095 20.7456 34.1206L20.7447 34.1214Z" fill="#4E6BFF"/>
<path d="M29.5789 20.7885C29.4672 20.6026 29.2953 20.4625 29.1201 20.3391C28.949 20.2181 28.7935 20.0851 28.6457 19.9435C28.5503 19.8517 28.4455 19.7987 28.3071 19.8027C28.3853 19.4861 28.4661 19.1705 28.5417 18.8531C28.7007 18.1877 28.7695 17.5128 28.7738 16.8316C28.7738 16.792 28.7797 16.7532 28.7832 16.7144C28.8331 16.7303 28.8932 16.7334 28.9301 16.7635C29.1622 16.9518 29.4157 17.1172 29.6236 17.3316C29.7594 17.4708 29.9106 17.5966 30.0534 17.7304C30.1221 17.7952 30.1942 17.8523 30.3 17.8538C30.2518 18.5976 30.1143 19.3264 29.8591 20.0353C29.768 20.2877 29.6718 20.5385 29.5781 20.7901L29.5789 20.7885Z" fill="#4E6BFF"/>
<path d="M12.2934 18.0237C12.3244 18.0292 12.3648 18.0253 12.3862 18.0419C12.7669 18.3394 13.1699 18.6155 13.4699 18.9914C13.4502 19.0365 13.4355 19.084 13.4106 19.1275C12.9577 19.914 12.449 20.6696 11.9007 21.4023C11.8766 21.4347 11.8449 21.4617 11.8165 21.4909C11.7331 21.4316 11.6429 21.3778 11.5664 21.3105C11.3808 21.1467 11.1952 20.9814 11.0216 20.8073C10.9038 20.6894 10.7732 20.6245 10.5988 20.6395C10.6297 20.5881 10.6555 20.5335 10.6907 20.4853C11.2467 19.7336 11.7529 18.9542 12.2058 18.1455C12.2298 18.1028 12.2643 18.0641 12.2934 18.0237Z" fill="#4E6BFF"/>
<path d="M21.6747 26.0652C21.7907 26.0533 21.8775 26.0992 21.9565 26.1735C22.1723 26.3769 22.3905 26.5779 22.6123 26.7765C22.6879 26.8445 22.7739 26.9015 22.8546 26.964C22.8254 27.0163 22.7996 27.07 22.7653 27.1191C22.2454 27.8534 21.6979 28.5686 21.1239 29.2681C21.0792 29.3227 21.0242 29.3694 20.9743 29.42C20.7105 29.1835 20.445 28.9485 20.1828 28.7103C20.0763 28.6129 19.9672 28.5228 19.809 28.5101C19.8494 28.4523 19.8864 28.3929 19.9311 28.3384C20.5 27.6436 21.0439 26.9339 21.5578 26.2036C21.5922 26.1545 21.636 26.1111 21.6756 26.0652H21.6747Z" fill="#4E6BFF"/>
<path d="M2.45057 16.2327C2.63361 16.2312 2.77368 16.3079 2.89743 16.4258C3.08219 16.6007 3.27297 16.7716 3.45945 16.9456C3.53594 17.0169 3.61413 17.081 3.73101 17.081C3.61499 17.2234 3.50414 17.3697 3.38297 17.5082C3.1011 17.8318 2.82009 18.1562 2.52876 18.4728C2.38354 18.631 2.23229 18.7901 2.05698 18.9182C1.74245 19.1492 1.32653 19.1556 0.999112 18.9657C0.777397 18.8367 0.669118 18.6642 0.712086 18.4149C0.744742 18.2243 0.817787 18.0518 0.944971 17.8991C1.03005 17.797 1.12114 17.6989 1.20966 17.5992C1.56457 17.2005 1.91862 16.8024 2.27439 16.4044C2.32854 16.3443 2.39213 16.2897 2.45057 16.2327Z" fill="#4E6BFF"/>
<path d="M14.6259 8.43326C14.6405 8.32487 14.5864 8.24653 14.5056 8.17295C14.2685 7.95932 14.0338 7.74252 13.8009 7.52413C13.7262 7.4545 13.6609 7.37696 13.5912 7.30259C13.8216 7.20209 14.0485 7.09369 14.2831 7.00349C14.8649 6.77878 15.469 6.61578 16.0843 6.4876C16.1874 6.46624 16.2948 6.46465 16.4005 6.45437C16.4632 6.49156 16.5225 6.53508 16.5887 6.56435C16.8672 6.68621 17.0751 6.87689 17.2453 7.10952C17.2847 7.16411 17.3501 7.20684 17.4119 7.24403C17.5924 7.35085 17.711 7.49327 17.7428 7.69187C17.161 7.76308 16.5836 7.85645 16.0215 8.01312C15.6142 8.12706 15.212 8.2584 14.8073 8.38104C14.7471 8.39925 14.6861 8.41585 14.6259 8.43326Z" fill="#4E6BFF"/>
<path d="M28.3972 32.311C28.7134 32.5009 29.0012 32.7232 29.2694 32.9677C29.3734 33.0627 29.4585 33.1806 29.6071 33.2265C29.2745 33.6633 28.9497 34.1047 28.6068 34.5344C28.3473 34.8604 28.0646 35.1714 27.793 35.4887C27.7561 35.4705 27.7113 35.4578 27.6822 35.4325C27.4347 35.2165 27.1932 34.9965 26.9294 34.7963C26.797 34.6958 26.675 34.6254 26.504 34.6357C26.5315 34.5937 26.5564 34.5495 26.5882 34.5107C27.1614 33.8057 27.7355 33.1007 28.3095 32.3965C28.3344 32.3656 28.3679 32.3395 28.3972 32.311Z" fill="#4E6BFF"/>
<path d="M13.1132 10.9857C13.2017 10.9936 13.2739 11.0292 13.3357 11.0885C13.4242 11.1732 13.5128 11.2579 13.6064 11.337C13.7233 11.4351 13.8505 11.5229 13.9665 11.6219C14.0731 11.7128 14.2114 11.7833 14.2364 11.9344C14.1212 12.0206 14.0026 12.1029 13.8918 12.1931C13.7878 12.2778 13.6778 12.36 13.5936 12.4598C13.3074 12.8016 13.0221 13.145 12.7557 13.5002C12.5924 13.7178 12.4644 13.9576 12.32 14.1871C11.923 13.8595 11.5766 13.4797 11.1324 13.1996C11.2432 12.9298 11.4289 12.6995 11.6033 12.4653C11.9874 11.951 12.4429 11.4944 12.9559 11.087C13.004 11.049 13.0599 11.0197 13.1123 10.9865L13.1132 10.9857Z" fill="#4E6BFF"/>
<path d="M12.5664 25.3136C12.5424 25.2599 12.5347 25.1839 12.4909 25.1562C12.1952 24.9687 11.9753 24.7076 11.7157 24.486C11.6375 24.4196 11.5713 24.3348 11.4493 24.3348C11.4915 24.2779 11.5301 24.2185 11.5765 24.1656C12.1437 23.5286 12.6825 22.8711 13.1895 22.1922C13.2196 22.1518 13.2566 22.1147 13.29 22.0767C13.3511 22.0909 13.4224 22.0909 13.4705 22.1217C13.8083 22.3362 14.0841 22.6139 14.366 22.8846C14.4064 22.9233 14.4158 22.9905 14.4398 23.0444C14.4209 23.0792 14.4064 23.1164 14.3823 23.1481C13.8555 23.8522 13.2952 24.5335 12.7006 25.1902C12.6601 25.2345 12.6111 25.2725 12.5664 25.3136Z" fill="#4E6BFF"/>
<path d="M19.2285 17.6681C19.3643 17.6563 19.4726 17.691 19.5757 17.7836C19.8206 18.0036 20.0767 18.214 20.3345 18.4221C20.3869 18.4649 20.466 18.4799 20.5321 18.5084C20.4248 18.7853 20.3302 19.0678 20.2056 19.3392C19.9684 19.855 19.7157 20.3654 19.4657 20.8758C19.4227 20.9644 19.3608 21.0451 19.3076 21.1298C19.1864 21.1314 19.1133 21.0562 19.0368 20.9858C18.8392 20.8038 18.6355 20.6265 18.4465 20.4383C18.3348 20.3275 18.2136 20.2674 18.0495 20.2879C18.0752 20.2238 18.0959 20.1574 18.1277 20.0956C18.5153 19.3479 18.8641 18.5852 19.1615 17.8026C19.1786 17.7567 19.2061 17.7124 19.2285 17.6681Z" fill="#4E6BFF"/>
<path d="M14.4395 23.044C14.4154 22.9902 14.4068 22.9237 14.3656 22.8841C14.0837 22.6136 13.8079 22.3359 13.4702 22.1214C13.422 22.0906 13.3507 22.0906 13.2897 22.0763C13.3215 22.0248 13.3507 21.9719 13.3859 21.9228C13.8801 21.236 14.3432 20.5326 14.7661 19.8062C14.7909 19.7627 14.8245 19.7231 14.8537 19.682C14.9044 19.6962 14.9637 19.6986 15.0032 19.7263C15.1468 19.826 15.2894 19.9281 15.4218 20.0397C15.6392 20.2248 15.8489 20.4179 16.0619 20.6078C16.0371 20.6615 16.0164 20.7177 15.9864 20.7692C15.5447 21.5121 15.0609 22.2322 14.5452 22.934C14.516 22.9736 14.4756 23.0068 14.4404 23.0432L14.4395 23.044Z" fill="#4E6BFF"/>
<path d="M27.4343 28.3884C27.5211 28.3852 27.595 28.4042 27.6689 28.454C27.857 28.5806 28.0298 28.7223 28.1905 28.8765C28.2782 28.9605 28.3709 29.0411 28.4595 29.125C28.5205 29.1828 28.5884 29.2247 28.6795 29.227C28.6571 29.2714 28.6391 29.3188 28.6107 29.36C28.1114 30.065 27.6112 30.7692 27.1103 31.4734C27.087 31.5058 27.0536 31.532 27.0252 31.5612C26.9255 31.4877 26.8198 31.4196 26.7279 31.3397C26.5173 31.1569 26.3248 30.9583 26.0851 30.8032C25.9914 30.7423 25.902 30.7059 25.792 30.7035C25.8238 30.6529 25.8522 30.6007 25.8865 30.5516C26.3695 29.8688 26.8533 29.1868 27.338 28.5047C27.3664 28.4643 27.4016 28.4271 27.4343 28.3884Z" fill="#4E6BFF"/>
<path d="M25.7047 25.4113C25.8259 25.3962 25.904 25.4603 25.9814 25.5331C26.2066 25.7436 26.4352 25.9517 26.6621 26.1614C26.7376 26.231 26.8082 26.3086 26.9293 26.3086C26.9138 26.345 26.9035 26.3845 26.882 26.4178C26.4153 27.1275 25.9479 27.8365 25.4795 28.5454C25.4572 28.5786 25.4245 28.6055 25.397 28.6355C25.2776 28.6372 25.2003 28.5683 25.1238 28.4972C24.9116 28.3009 24.6949 28.1078 24.4869 27.9084C24.3985 27.823 24.2971 27.7834 24.1724 27.7858C24.2077 27.7248 24.2395 27.6624 24.2782 27.603C24.7233 26.9139 25.1702 26.2247 25.6162 25.5363C25.6437 25.4936 25.6746 25.4532 25.7038 25.4121L25.7047 25.4113Z" fill="#4E6BFF"/>
<path d="M5.05746 20.1179C5.05488 20.0333 5.00418 19.9739 4.9423 19.9178C4.72488 19.7192 4.50746 19.519 4.29177 19.3188C4.19123 19.2262 4.07435 19.1661 3.93256 19.1487C3.96951 19.1004 4.00217 19.049 4.04342 19.0046C4.57966 18.4365 5.08668 17.8479 5.55159 17.2276C5.59369 17.1714 5.64525 17.1215 5.69252 17.0685C5.78705 17.0764 5.88846 17.0535 5.9701 17.1183C6.13251 17.2458 6.30009 17.3684 6.45649 17.5021C6.61203 17.635 6.75727 17.779 6.9068 17.9175C6.61719 18.2973 6.33618 18.6842 6.03454 19.0561C5.79049 19.3568 5.52151 19.6416 5.26113 19.9305C5.20011 19.9977 5.12535 20.0555 5.05746 20.1179Z" fill="#4E6BFF"/>
<path d="M10.7884 9.04718C11.0927 9.30359 11.3522 9.60503 11.6925 9.82658C11.7724 9.87878 11.842 9.93891 11.8437 10.0386C11.8008 10.0821 11.763 10.132 11.714 10.1692C11.0694 10.6645 10.6097 11.2975 10.1456 11.9289C10.0915 12.0025 10.0339 12.0729 9.9772 12.1441C9.97206 12.0484 9.91098 11.9827 9.8414 11.9194C9.66006 11.754 9.4702 11.595 9.30259 11.4185C9.16338 11.2722 9.0044 11.2073 8.79816 11.2318C8.81534 11.1962 8.82651 11.1575 8.84886 11.125C9.36873 10.3836 9.97888 9.71184 10.6844 9.11447C10.7154 9.08833 10.754 9.07013 10.7884 9.04718Z" fill="#4E6BFF"/>
<path d="M26.5047 34.6348C26.6756 34.6237 26.7977 34.6949 26.93 34.7954C27.1938 34.9956 27.4353 35.2155 27.6828 35.4316C27.7129 35.4577 27.7567 35.4695 27.7936 35.4877C27.4335 35.8897 27.0804 36.2972 26.71 36.6913C26.4659 36.9508 26.1978 37.1905 25.94 37.439C25.7252 37.2499 25.5078 37.0623 25.2955 36.8709C25.1812 36.7672 25.0677 36.6667 24.9165 36.6065C24.8632 36.5852 24.8254 36.5298 24.7807 36.4902C24.8039 36.4578 24.8237 36.4223 24.8521 36.3946C25.384 35.8691 25.8867 35.3216 26.3732 34.7614C26.4126 34.7163 26.4608 34.6767 26.5047 34.6348Z" fill="#4E6BFF"/>
<path d="M17.6993 26.3161C17.7242 26.2726 17.7457 26.2275 17.7757 26.1871C18.2338 25.562 18.6918 24.9377 19.1507 24.3135C19.1747 24.281 19.2031 24.2509 19.2297 24.22C19.3896 24.2374 19.4979 24.3317 19.6087 24.4281C19.8425 24.6315 20.041 24.8689 20.3134 25.0358C20.3573 25.0627 20.3659 25.1387 20.3907 25.1917C20.3735 25.2273 20.3606 25.2653 20.3374 25.2978C19.8794 25.9181 19.4205 26.5384 18.9607 27.1579C18.9316 27.1975 18.8895 27.23 18.8534 27.2664C18.8095 27.2395 18.7605 27.2181 18.7227 27.1856C18.5303 27.0195 18.3506 26.8422 18.1341 26.6975C17.9734 26.5898 17.8427 26.4443 17.6993 26.3161Z" fill="#4E6BFF"/>
<path d="M16.0611 20.6087C15.848 20.4188 15.6392 20.2257 15.4209 20.0405C15.2886 19.9281 15.1459 19.8268 15.0024 19.7272C14.9628 19.6995 14.9035 19.6971 14.8528 19.6828C14.8674 19.6464 14.8787 19.6077 14.8984 19.5729C15.3023 18.8592 15.6718 18.1304 15.9983 17.3843C16.0104 17.3574 16.0328 17.3352 16.05 17.3107C16.1066 17.3344 16.1745 17.3464 16.2184 17.3828C16.4959 17.6114 16.7692 17.8432 17.0408 18.0774C17.1206 18.1463 17.1963 18.2119 17.3141 18.2119C17.2203 18.4216 17.1379 18.6368 17.0313 18.841C16.7494 19.3846 16.4573 19.9242 16.1676 20.4638C16.1401 20.5161 16.0972 20.5603 16.0611 20.6087Z" fill="#4E6BFF"/>
<path d="M18.0493 20.2868C18.2135 20.2661 18.3347 20.3263 18.4463 20.437C18.6363 20.6262 18.8399 20.8026 19.0368 20.9846C19.1132 21.055 19.1854 21.1302 19.3074 21.1286C19.1888 21.3485 19.0797 21.5741 18.949 21.7877C18.6388 22.2933 18.3183 22.7934 17.9995 23.2951C17.9625 23.3536 17.9127 23.405 17.8688 23.4596C17.8233 23.4058 17.7846 23.3448 17.7305 23.2982C17.465 23.0695 17.1951 22.8464 16.9287 22.6177C16.8591 22.5576 16.7783 22.5489 16.6907 22.5497C16.7122 22.5054 16.7285 22.4587 16.756 22.4176C17.196 21.7552 17.6016 21.0763 17.9788 20.3824C17.9978 20.3484 18.0261 20.3183 18.0493 20.2868Z" fill="#4E6BFF"/>
<path d="M30.9212 21.7174C31.0681 21.7047 31.1815 21.7482 31.295 21.8439C31.5476 22.056 31.8141 22.2538 32.0512 22.4817C32.0915 22.5197 32.1637 22.53 32.2205 22.5529C32.1406 22.7571 32.0667 22.9628 31.9807 23.1645C31.8235 23.5325 31.6524 23.8956 31.4986 24.2651C31.2675 24.819 30.6161 24.7748 30.293 24.5492C30.0644 24.3901 30.0033 24.1575 30.0429 23.9107C30.0704 23.7366 30.1254 23.5625 30.1933 23.3972C30.3781 22.9438 30.5749 22.4936 30.769 22.0434C30.8163 21.9334 30.8705 21.8258 30.9212 21.7174Z" fill="#4E6BFF"/>
<path d="M11.1329 13.1992C11.5772 13.4793 11.9235 13.8591 12.3205 14.1866C12.0275 14.8679 11.7353 15.5492 11.4389 16.2297C11.3916 16.3388 11.3263 16.4417 11.2696 16.5469C11.2446 16.5153 11.2275 16.4726 11.1939 16.4544C11.0169 16.3563 10.8863 16.2218 10.7686 16.0651C10.6852 15.9543 10.5667 15.8633 10.4497 15.7787C10.3338 15.6956 10.2099 15.6093 10.0441 15.6425C10.2762 15.0626 10.4988 14.4795 10.7445 13.905C10.8494 13.6605 11.0015 13.4342 11.1329 13.1992Z" fill="#4E6BFF"/>
<path d="M20.3914 25.192C20.3665 25.1389 20.3579 25.0622 20.3141 25.0361C20.0417 24.8691 19.8432 24.6317 19.6094 24.4284C19.4985 24.3319 19.3903 24.2377 19.2305 24.2203C19.2373 24.2022 19.2408 24.1815 19.251 24.1649C19.6756 23.4813 20.1018 22.7977 20.5272 22.1148C20.5375 22.0982 20.5565 22.0864 20.5711 22.0729C20.8159 22.1361 21.0059 22.2778 21.139 22.4677C21.2714 22.6568 21.494 22.7383 21.6564 22.8886C21.6856 22.9155 21.757 22.9037 21.8093 22.9092C21.7904 22.9551 21.7767 23.0026 21.7527 23.0461C21.3616 23.7384 20.9414 24.4158 20.4929 25.0788C20.4654 25.1199 20.4257 25.1548 20.3914 25.192Z" fill="#4E6BFF"/>
<path d="M16.6913 22.5498C16.7781 22.549 16.8589 22.5577 16.9293 22.6178C17.1949 22.8458 17.4656 23.0696 17.7311 23.2983C17.7844 23.3442 17.824 23.4052 17.8695 23.4598C17.7732 23.6101 17.6839 23.766 17.5782 23.9107C17.2181 24.4021 16.8529 24.8895 16.4876 25.3769C16.4584 25.4165 16.4155 25.4474 16.3784 25.4829C16.3476 25.4228 16.3312 25.3508 16.284 25.3049C16.0957 25.1206 15.9118 24.929 15.6987 24.7716C15.5647 24.6727 15.4495 24.5272 15.2536 24.5105C15.2673 24.4836 15.2768 24.4543 15.294 24.4306C15.7434 23.8166 16.1937 23.2026 16.6449 22.5893C16.656 22.5736 16.6758 22.5633 16.6913 22.5498Z" fill="#4E6BFF"/>
<path d="M25.7908 30.7033C25.9008 30.7056 25.9902 30.742 26.0839 30.8029C26.3228 30.9581 26.5161 31.1567 26.7267 31.3395C26.8195 31.4201 26.9243 31.4874 27.024 31.5609C26.9175 31.6955 26.81 31.8293 26.7044 31.9645C26.6433 32.0429 26.5883 32.126 26.5247 32.2027C26.175 32.6252 25.8235 33.0469 25.4729 33.4686C25.3895 33.4102 25.2993 33.3587 25.2245 33.293C25.0337 33.1245 24.8439 32.9551 24.665 32.7764C24.5491 32.66 24.4202 32.5959 24.2483 32.6133C24.269 32.5793 24.2869 32.5437 24.3119 32.5128C24.7751 31.9384 25.2391 31.364 25.704 30.7896C25.729 30.7587 25.7616 30.7318 25.7908 30.7033Z" fill="#4E6BFF"/>
<path d="M17.6996 26.3165C17.843 26.4446 17.9737 26.5895 18.1344 26.697C18.3509 26.8418 18.5305 27.0191 18.723 27.1853C18.7608 27.2177 18.8098 27.239 18.8537 27.2659C18.8133 27.3237 18.778 27.3854 18.7316 27.4385C18.265 27.9797 17.7967 28.5201 17.3274 29.0597C17.2948 29.0969 17.2509 29.1262 17.2123 29.1594C17.1539 28.96 17.0094 28.8152 16.8496 28.6831C16.7148 28.5715 16.5712 28.467 16.4354 28.3563C16.3271 28.2684 16.2111 28.2028 16.0607 28.2123C16.2077 28.0438 16.3564 27.876 16.5016 27.7058C16.8393 27.3111 17.1754 26.9138 17.5131 26.5191C17.5724 26.4494 17.6368 26.3837 17.6996 26.3165Z" fill="#4E6BFF"/>
<path d="M8.79865 11.2325C9.00489 11.208 9.16387 11.2729 9.30308 11.4193C9.47149 11.5957 9.66059 11.7547 9.84194 11.9201C9.91152 11.9834 9.97334 12.0491 9.97764 12.1449C9.9725 12.1638 9.97166 12.1852 9.96137 12.2018C9.59008 12.7849 9.29278 13.3997 9.03583 14.0319C9.01692 14.0778 8.98771 14.1198 8.96364 14.1633C8.72474 14.0786 8.56318 13.9133 8.41193 13.7305C8.2246 13.5042 8.01921 13.2914 7.70898 13.2003C7.71414 13.1711 7.71414 13.1402 7.72617 13.1142C8.01061 12.4954 8.32428 11.8901 8.71873 11.3228C8.74107 11.2903 8.772 11.2626 8.79865 11.2334V11.2325Z" fill="#4E6BFF"/>
<path d="M6.92796 36.1287C7.32584 36.3519 7.61458 36.6857 7.94372 36.9793C7.9884 37.0188 8.01419 37.0766 8.04942 37.1257C7.8045 37.2855 7.56045 37.4469 7.31381 37.6044C6.96062 37.8299 6.60399 38.0498 6.25251 38.277C5.98009 38.4534 5.66642 38.4312 5.44901 38.2619C5.19722 38.0665 5.10354 37.7626 5.21612 37.4849C5.28143 37.3235 5.38713 37.1858 5.53494 37.0829C5.99728 36.7625 6.46305 36.4468 6.92796 36.1287Z" fill="#4E6BFF"/>
<path d="M24.7807 36.4895C24.8254 36.529 24.8632 36.5844 24.9165 36.6058C25.0678 36.6667 25.1804 36.7672 25.2955 36.87C25.5078 37.0615 25.7251 37.249 25.94 37.4381C25.9366 37.4476 25.9358 37.4587 25.9288 37.4658C25.5138 37.8749 25.1012 38.2863 24.6793 38.6891C24.5934 38.7713 24.4748 38.8339 24.3588 38.879C23.869 39.072 23.4058 38.7247 23.3275 38.3853C23.2924 38.2309 23.3181 38.0861 23.3886 37.9532C23.4539 37.8306 23.5355 37.7103 23.6344 37.6083C23.9859 37.2475 24.3476 36.8953 24.706 36.5409C24.7274 36.5195 24.7559 36.5052 24.7816 36.4878L24.7807 36.4895Z" fill="#4E6BFF"/>
<path d="M11.6994 4.97317C12.0939 5.20262 12.3972 5.52624 12.7272 5.82295C12.7942 5.8831 12.82 5.95351 12.8139 6.03738C12.7874 6.05321 12.7624 6.07537 12.7332 6.08486C12.3818 6.20197 12.081 6.40452 11.7647 6.5786C11.4528 6.75029 11.1555 6.94336 10.8512 7.12614C10.816 7.1475 10.7773 7.16332 10.7404 7.18231C10.4104 6.84525 10.0958 6.49156 9.66617 6.25181C9.64981 6.24311 9.64382 6.21937 9.63269 6.20197C9.8724 6.03739 10.1036 5.86252 10.3528 5.7106C10.7275 5.48272 11.1133 5.27067 11.4957 5.05545C11.5585 5.01984 11.6315 5.00086 11.6994 4.97317Z" fill="#4E6BFF"/>
<path d="M24.2492 32.6123C24.4211 32.5949 24.5501 32.659 24.6661 32.7753C24.8448 32.9541 25.0348 33.1235 25.2255 33.292C25.3003 33.3585 25.3905 33.4099 25.4739 33.4676C25.4696 33.4763 25.467 33.4875 25.4601 33.4945C25.2891 33.6694 25.1507 33.8672 24.9874 34.0476C24.8156 34.2375 24.6446 34.4282 24.471 34.6173C24.3043 34.7985 24.1359 34.9781 23.9674 35.1577C23.9537 35.172 23.933 35.1807 23.9158 35.1918C23.7792 35.1435 23.7018 35.0391 23.6125 34.9401C23.469 34.7827 23.316 34.6308 23.1493 34.4947C23.0221 34.391 22.8674 34.3166 22.6835 34.3348C22.7497 34.2573 22.8133 34.1789 22.8812 34.103C23.2756 33.6607 23.671 33.2176 24.068 32.7769C24.1221 32.7168 24.1883 32.6669 24.2484 32.6115L24.2492 32.6123Z" fill="#4E6BFF"/>
<path d="M17.3154 18.2112C17.1977 18.2112 17.1213 18.1455 17.0421 18.0767C16.7706 17.8424 16.4965 17.6098 16.2198 17.3819C16.1759 17.3456 16.108 17.3337 16.0513 17.3099C16.2232 16.874 16.3813 16.434 16.5704 16.0044C16.6967 15.7171 16.9116 15.4806 17.1994 15.3089C17.257 15.4449 17.3713 15.5399 17.4951 15.6166C17.7666 15.786 17.9668 16.021 18.1962 16.2291C18.2298 16.26 18.2341 16.3185 18.2513 16.3644C18.0261 16.5424 17.8972 16.7727 17.8002 17.0283C17.6498 17.4262 17.4779 17.8172 17.3154 18.2112Z" fill="#4E6BFF"/>
<path d="M15.2542 24.5108C15.4502 24.5273 15.5645 24.673 15.6993 24.7718C15.9125 24.9293 16.0963 25.1208 16.2846 25.3051C16.3318 25.351 16.3482 25.423 16.3791 25.4832C16.2381 25.6651 16.1041 25.8527 15.9546 26.0283C15.6366 26.4002 15.3109 26.7666 14.9869 27.1337C14.9611 27.1638 14.9233 27.1851 14.8915 27.2105C14.8889 27.1257 14.8392 27.0641 14.7764 27.0071C14.5787 26.8275 14.3871 26.6423 14.1852 26.4659C14.07 26.3654 13.9463 26.2713 13.7813 26.2427C13.9385 26.056 14.0932 25.8685 14.2531 25.6842C14.4198 25.4919 14.5899 25.302 14.7592 25.1113C14.7781 25.0899 14.7962 25.0677 14.815 25.0464C14.9611 24.8676 15.1082 24.6895 15.2542 24.5108Z" fill="#4E6BFF"/>
<path d="M24.1729 27.7853C24.2976 27.7829 24.3981 27.8225 24.4874 27.9079C24.6954 28.1081 24.9119 28.3004 25.1243 28.4966C25.2008 28.5678 25.2781 28.6367 25.3975 28.6351C25.089 29.0529 24.7874 29.4746 24.4694 29.886C24.3775 30.0047 24.2503 30.1052 24.124 30.1954C23.9478 30.3204 23.7476 30.3307 23.5456 30.2397C23.5164 30.227 23.488 30.2136 23.4597 30.1994C23.0317 29.981 22.9243 29.6921 23.1185 29.2776C23.1529 29.2048 23.1907 29.1327 23.2379 29.0671C23.5482 28.6391 23.8618 28.2125 24.1738 27.7861L24.1729 27.7853Z" fill="#4E6BFF"/>
<path d="M16.0601 28.2122C16.2114 28.2027 16.3274 28.2684 16.4348 28.3562C16.5706 28.467 16.7141 28.5707 16.849 28.683C17.0088 28.8152 17.1541 28.9599 17.2117 29.1593C16.8336 29.5565 16.4571 29.9562 16.0756 30.3509C15.9476 30.4831 15.804 30.6017 15.6674 30.7268C15.6631 30.6421 15.6159 30.5796 15.5523 30.5226C15.3537 30.3422 15.1613 30.1563 14.9593 29.9799C14.8442 29.8794 14.7195 29.7836 14.5537 29.7559C14.5993 29.7022 14.6422 29.6451 14.692 29.5945C15.1157 29.1601 15.5411 28.7265 15.9665 28.293C15.9948 28.2636 16.0283 28.2383 16.0601 28.2122Z" fill="#4E6BFF"/>
<path d="M6.90641 17.9172C6.75689 17.7779 6.61251 17.6347 6.45611 17.5018C6.29971 17.3681 6.13299 17.2454 5.96971 17.1181C5.88721 17.054 5.78581 17.0769 5.69214 17.0682C5.72737 17.0081 5.75917 16.9455 5.79956 16.8878C6.16307 16.3734 6.4922 15.8417 6.78696 15.291C6.81017 15.2476 6.8411 15.2072 6.8686 15.1653C7.04304 15.1581 7.17281 15.2388 7.28882 15.3481C7.49163 15.5371 7.69788 15.7231 7.89983 15.913C7.95139 15.9612 7.99092 16.0206 8.03647 16.0752C8.02873 16.1037 8.02615 16.1345 8.0124 16.1598C7.6953 16.7398 7.35242 17.3063 6.96743 17.8507C6.95024 17.8752 6.92618 17.8958 6.90555 17.918L6.90641 17.9172Z" fill="#4E6BFF"/>
<path d="M22.6836 34.335C22.8676 34.3159 23.0222 34.3912 23.1493 34.4948C23.3161 34.6309 23.47 34.7829 23.6126 34.9403C23.702 35.0392 23.7793 35.1437 23.916 35.1919C23.7664 35.3549 23.622 35.5218 23.4665 35.6793C23.115 36.0362 22.7576 36.3883 22.4017 36.7411C22.3811 36.7617 22.351 36.7752 22.3253 36.7918C22.3253 36.681 22.2385 36.6185 22.1637 36.5505C21.869 36.2854 21.5734 36.0211 21.2786 35.756C21.3026 35.7236 21.3224 35.6888 21.3508 35.6603C21.7701 35.237 22.1903 34.8144 22.6114 34.392C22.6329 34.3706 22.6586 34.354 22.6836 34.335Z" fill="#4E6BFF"/>
<path d="M13.7804 26.2425C13.9455 26.2702 14.0692 26.3651 14.1843 26.4657C14.3854 26.6413 14.5779 26.8265 14.7756 27.0069C14.8382 27.0639 14.8873 27.1256 14.8907 27.2102C14.7128 27.4065 14.5427 27.6082 14.3571 27.7973C14.0563 28.1035 13.7452 28.4018 13.4384 28.7033C13.355 28.6431 13.2656 28.5902 13.1901 28.5229C12.9907 28.3457 12.7922 28.1676 12.6031 27.9809C12.4982 27.8773 12.3797 27.8392 12.2327 27.8519C12.2637 27.8132 12.292 27.7712 12.3273 27.7356C12.7724 27.2711 13.2192 26.8067 13.6661 26.3431C13.7014 26.3066 13.7426 26.2758 13.7804 26.2425Z" fill="#4E6BFF"/>
<path d="M6.81244 11.4355C6.78322 11.3951 6.75916 11.3492 6.72221 11.3152C6.45237 11.0636 6.1791 10.8159 5.91012 10.5635C5.82934 10.4875 5.73825 10.452 5.62567 10.4575C5.63512 10.429 5.6377 10.3974 5.65403 10.3736C5.92902 9.98351 6.20058 9.59027 6.48589 9.20575C6.64229 8.99524 6.8726 8.90033 7.1536 8.91138C7.695 8.93277 8.02672 9.39167 7.8325 9.85617C7.80586 9.92027 7.77321 9.98429 7.73367 10.0429C7.42774 10.5081 7.11923 10.9726 6.81158 11.4371L6.81244 11.4355Z" fill="#4E6BFF"/>
<path d="M10.0444 15.6424C10.2103 15.6092 10.3341 15.6955 10.45 15.7786C10.567 15.8624 10.6855 15.9542 10.7689 16.065C10.8866 16.2208 11.0173 16.3562 11.1942 16.4543C11.2278 16.4725 11.245 16.5152 11.2699 16.5468C11.1135 16.9702 10.8995 17.3697 10.6494 17.7511C10.4269 18.0906 10.1424 18.1467 9.7256 18.0684C9.35955 17.9995 9.12494 17.5984 9.21602 17.2519C9.23149 17.1941 9.25212 17.1371 9.27962 17.0833C9.53313 16.6022 9.7892 16.1227 10.0444 15.6424Z" fill="#4E6BFF"/>
<path d="M6.79121 22.6316C6.70699 22.5738 6.61503 22.5233 6.53856 22.4567C6.3684 22.3088 6.21113 22.1466 6.03755 22.0018C5.90606 21.8918 5.77373 21.7684 5.57178 21.7771C5.59498 21.7446 5.61474 21.7098 5.64224 21.6813C6.06075 21.2359 6.48011 20.7912 6.89948 20.3465C6.94073 20.3022 6.98713 20.2618 7.03097 20.2191C7.19768 20.2389 7.32057 20.3236 7.44002 20.4272C7.67806 20.6345 7.92555 20.8331 8.17047 21.0341C8.19367 21.0531 8.22719 21.0602 8.25555 21.0729C7.81126 21.6276 7.33604 22.1576 6.79121 22.6316Z" fill="#4E6BFF"/>
<path d="M8.03751 16.0754C7.99282 16.0208 7.95243 15.9622 7.90087 15.9132C7.69892 15.7234 7.49267 15.5373 7.28986 15.3482C7.17299 15.2399 7.04408 15.1591 6.86963 15.1655C6.92893 15.0302 6.99166 14.8956 7.04838 14.7588C7.22198 14.3379 7.39213 13.9153 7.56743 13.4936C7.60868 13.3939 7.66197 13.2974 7.70922 13.2C8.01946 13.291 8.22398 13.5039 8.41218 13.7302C8.56343 13.9122 8.72413 14.0784 8.96389 14.163C8.77139 14.5902 8.58577 15.0206 8.38468 15.4448C8.28242 15.66 8.15437 15.8649 8.03836 16.0747L8.03751 16.0754Z" fill="#4E6BFF"/>
<path d="M4.59352 34.1635C4.7654 34.1595 4.90032 34.2299 5.01718 34.3392C5.20452 34.514 5.39272 34.688 5.58351 34.8597C5.65913 34.9278 5.74163 34.9904 5.82155 35.0552C5.41937 35.3512 5.02235 35.6518 4.61243 35.9383C4.49642 36.0189 4.34861 36.0767 4.20596 36.1084C3.88198 36.1796 3.61386 36.0807 3.41706 35.8307C3.22114 35.583 3.18418 35.321 3.36894 35.0576C3.44371 34.9515 3.53566 34.8471 3.6448 34.7719C3.95417 34.5607 4.27643 34.3652 4.59352 34.1635Z" fill="#4E6BFF"/>
<path d="M11.6545 40.0134C11.6812 40.0284 11.7079 40.0554 11.7354 40.0561C11.921 40.0648 12.0516 40.159 12.1745 40.2745C12.3687 40.4581 12.5663 40.6377 12.764 40.8181C12.7941 40.8449 12.831 40.8663 12.8646 40.8901C12.4529 41.2074 12.0482 41.5333 11.6262 41.8396C11.3297 42.0548 10.9972 42.0517 10.6972 41.8673C10.4085 41.69 10.2977 41.3941 10.4016 41.0871C10.4541 40.9312 10.5443 40.7967 10.6826 40.697C11.0041 40.4659 11.3306 40.2405 11.6545 40.0134Z" fill="#4E6BFF"/>
<path d="M17.7423 7.69181C17.7105 7.4932 17.5919 7.35078 17.4115 7.24396C17.3496 7.20756 17.2851 7.16405 17.2447 7.10945C17.0746 6.87682 16.8666 6.68614 16.5882 6.56428C16.5212 6.53501 16.4628 6.49149 16.4 6.4543C16.6596 6.34748 16.9431 6.33878 17.2172 6.31029C17.6659 6.2644 18.1179 6.2549 18.5691 6.23038C18.7229 6.22167 18.8707 6.24858 19.0073 6.31266C19.2969 6.44876 19.4207 6.67585 19.4121 6.96939C19.4035 7.26532 19.2609 7.48608 18.9575 7.5929C18.8303 7.638 18.6868 7.65146 18.5484 7.66095C18.2803 7.67836 18.0113 7.68151 17.7423 7.69181Z" fill="#4E6BFF"/>
<path d="M21.8084 22.9093C21.756 22.9038 21.6846 22.9156 21.6554 22.8887C21.493 22.7384 21.2704 22.6561 21.1381 22.4678C21.0057 22.2787 20.8158 22.1363 20.57 22.073C20.7548 21.7272 20.9241 21.3743 21.1295 21.0388C21.3263 20.716 21.7465 20.591 22.1083 20.7184C22.3343 20.7975 22.483 20.9431 22.5251 21.171C22.562 21.3711 22.5543 21.5658 22.4546 21.7509C22.2595 22.1149 22.0644 22.4789 21.8677 22.842C21.8539 22.8674 21.8281 22.8864 21.8084 22.9093Z" fill="#4E6BFF"/>
<path d="M9.63339 6.20203C9.64461 6.21865 9.6506 6.24238 9.66697 6.25188C10.0966 6.49163 10.4111 6.84531 10.7411 7.18238C10.4068 7.44587 10.0734 7.71093 9.73739 7.97283C9.67211 8.02347 9.59907 8.06778 9.52341 8.10418C9.04134 8.33206 8.41916 7.99025 8.3994 7.48859C8.39424 7.36753 8.41143 7.24727 8.49049 7.14836C8.58588 7.02888 8.67783 6.90228 8.79814 6.80734C9.06797 6.59608 9.35412 6.40222 9.63339 6.20203Z" fill="#4E6BFF"/>
<path d="M8.52046 38.6232C8.71209 38.6271 8.86162 38.7071 8.99139 38.8328C9.17443 39.0085 9.36348 39.1794 9.55165 39.3495C9.61871 39.4105 9.69343 39.4651 9.76479 39.522C9.44597 39.7538 9.12974 39.9873 8.80748 40.2144C8.73272 40.2673 8.64163 40.3054 8.55226 40.3362C8.19992 40.4581 7.83298 40.3513 7.61728 40.0656C7.47032 39.871 7.4729 39.6597 7.54853 39.4437C7.6061 39.2791 7.71611 39.1454 7.86477 39.0433C8.04438 38.9207 8.23257 38.8083 8.41648 38.6912C8.4371 38.6762 8.45772 38.6612 8.47835 38.6461C8.48523 38.6279 8.49898 38.62 8.5196 38.6223L8.52046 38.6232Z" fill="#4E6BFF"/>
<path d="M8.25473 21.0728C8.22638 21.0601 8.19286 21.0523 8.16965 21.0341C7.92474 20.8331 7.67724 20.6345 7.4392 20.4272C7.31975 20.3235 7.196 20.2389 7.03015 20.219C7.251 19.9517 7.47014 19.6826 7.69443 19.4175C7.73997 19.3637 7.79755 19.3163 7.85599 19.2736C8.10692 19.0892 8.37676 19.0575 8.66808 19.1913C8.96026 19.325 9.09175 19.5458 9.0883 19.8393C9.08658 20.0118 9.0376 20.1748 8.92073 20.3108C8.7016 20.5672 8.4773 20.8188 8.25473 21.0728Z" fill="#4E6BFF"/>
<path d="M38.6163 32.0122V31.6079H41.6771V32.0122H40.3938V35.3725H39.8996V32.0122H38.6163ZM42.8464 33.674V35.3725H42.376V31.6079H42.8464V32.9902H42.8862C42.958 32.8444 43.0656 32.7286 43.2091 32.6427C43.3539 32.5558 43.5465 32.5123 43.787 32.5123C43.9955 32.5123 44.1782 32.5509 44.3349 32.6281C44.4917 32.7041 44.6133 32.8211 44.6996 32.9792C44.7873 33.1361 44.8311 33.3358 44.8311 33.5785V35.3725H44.3608V33.6078C44.3608 33.3836 44.2977 33.2102 44.1715 33.0877C44.0467 32.9639 43.8733 32.902 43.6514 32.902C43.4973 32.902 43.3592 32.932 43.2369 32.9921C43.116 33.0521 43.0204 33.1397 42.95 33.2549C42.8809 33.3701 42.8464 33.5098 42.8464 33.674ZM46.9748 35.4314C46.6799 35.4314 46.4255 35.3713 46.2116 35.2512C45.999 35.1299 45.835 34.9608 45.7194 34.7439C45.6051 34.5258 45.548 34.272 45.548 33.9828C45.548 33.6936 45.6051 33.4387 45.7194 33.2181C45.835 32.9963 45.9957 32.8236 46.2016 32.6998C46.4089 32.5748 46.6506 32.5123 46.927 32.5123C47.0863 32.5123 47.2438 32.5368 47.3993 32.5858C47.5546 32.6348 47.6961 32.7144 47.8237 32.8248C47.9513 32.9338 48.0528 33.0784 48.1286 33.2586C48.2043 33.4387 48.2421 33.6605 48.2421 33.924V34.1079H45.8828V33.7328H47.7639C47.7639 33.5736 47.7293 33.4314 47.6603 33.3064C47.5925 33.1813 47.4955 33.0827 47.3694 33.0104C47.2445 32.9381 47.097 32.902 46.927 32.902C46.7397 32.902 46.5776 32.9449 46.4407 33.0306C46.3052 33.1152 46.2009 33.2255 46.1279 33.3615C46.0549 33.4975 46.0183 33.6434 46.0183 33.799V34.049C46.0183 34.2623 46.0581 34.443 46.1378 34.5913C46.2189 34.7383 46.3311 34.8505 46.4746 34.9277C46.6181 35.0036 46.7848 35.0417 46.9748 35.0417C47.0983 35.0417 47.2099 35.0257 47.3096 34.9939C47.4105 34.9608 47.4976 34.9118 47.5706 34.8468C47.6437 34.7806 47.7002 34.6985 47.74 34.6005L48.1943 34.7182C48.1465 34.8603 48.0661 34.9853 47.9532 35.0931C47.8403 35.1997 47.7008 35.2831 47.5347 35.3431C47.3687 35.402 47.182 35.4314 46.9748 35.4314ZM50.5995 35.3725V31.6079H51.9786C52.2987 31.6079 52.5604 31.6612 52.7636 31.7677C52.9682 31.8732 53.1197 32.016 53.218 32.1961C53.3163 32.3762 53.3654 32.5772 53.3654 32.799C53.3654 33.0208 53.3163 33.2224 53.218 33.4038C53.1211 33.5852 52.9709 33.7298 52.7676 33.8376C52.5644 33.9443 52.304 33.9975 51.9865 33.9975H50.9981V33.5931H51.9705C52.1897 33.5931 52.3658 33.5582 52.4987 33.4884C52.6315 33.4185 52.7278 33.3241 52.7876 33.2052C52.8487 33.0852 52.8792 32.9498 52.8792 32.799C52.8792 32.6483 52.8487 32.5135 52.7876 32.3946C52.7278 32.2757 52.6308 32.1826 52.4966 32.1152C52.3625 32.0466 52.1844 32.0122 51.9626 32.0122H51.0937V35.3725H50.5995ZM54.5681 31.6079V35.3725H54.0977V31.6079H54.5681ZM56.3301 35.4387C56.1361 35.4387 55.9601 35.405 55.8021 35.3376C55.644 35.269 55.5184 35.1703 55.4254 35.0417C55.3325 34.9118 55.286 34.7549 55.286 34.5711C55.286 34.4093 55.3205 34.2782 55.3896 34.1777C55.4586 34.076 55.5509 33.9963 55.6665 33.9388C55.7821 33.8811 55.9097 33.8382 56.0491 33.81C56.19 33.7806 56.3315 33.7573 56.4736 33.7402C56.6596 33.7182 56.8103 33.7016 56.9259 33.6905C57.0429 33.6783 57.1279 33.6581 57.181 33.6299C57.2355 33.6017 57.2627 33.5527 57.2627 33.4829V33.4681C57.2627 33.2868 57.209 33.1458 57.1013 33.0454C56.9951 32.9449 56.8336 32.8946 56.6171 32.8946C56.3926 32.8946 56.2166 32.94 56.089 33.0306C55.9615 33.1213 55.8718 33.2181 55.82 33.3211L55.3736 33.174C55.4533 33.0024 55.5596 32.8689 55.6924 32.7733C55.8266 32.6765 55.9727 32.6091 56.1309 32.571C56.2903 32.5319 56.447 32.5123 56.6011 32.5123C56.6994 32.5123 56.8124 32.5232 56.9399 32.5453C57.0688 32.5662 57.193 32.6097 57.3126 32.6759C57.4334 32.742 57.5338 32.8419 57.6134 32.9755C57.6931 33.1091 57.733 33.288 57.733 33.5123V35.3725H57.2627V34.9902H57.2388C57.2069 35.0514 57.1538 35.117 57.0794 35.1869C57.005 35.2568 56.906 35.3162 56.7825 35.3652C56.6589 35.4142 56.5082 35.4387 56.3301 35.4387ZM56.4018 35.049C56.5879 35.049 56.7446 35.0153 56.8722 34.9479C57.001 34.8805 57.098 34.7935 57.1631 34.6869C57.2295 34.5803 57.2627 34.4681 57.2627 34.3505V33.9534C57.2428 33.9755 57.1989 33.9957 57.1312 34.0141C57.0647 34.0312 56.9878 34.0466 56.9 34.0601C56.8137 34.0723 56.7294 34.0833 56.647 34.0931C56.566 34.1017 56.5002 34.1091 56.4497 34.1152C56.3275 34.1299 56.2132 34.1538 56.1069 34.1869C56.002 34.2187 55.917 34.2671 55.8519 34.3321C55.7881 34.3958 55.7562 34.4828 55.7562 34.5931C55.7562 34.7439 55.8166 34.8578 55.9376 34.9351C56.0598 35.0111 56.2146 35.049 56.4018 35.049ZM59.8349 35.4314C59.5479 35.4314 59.3008 35.3688 59.0936 35.2439C58.8863 35.1189 58.7269 34.9467 58.6153 34.7273C58.5037 34.508 58.4479 34.2574 58.4479 33.9755C58.4479 33.6887 58.505 33.4357 58.6193 33.2163C58.7348 32.9957 58.8956 32.8236 59.1015 32.6998C59.3088 32.5748 59.5505 32.5123 59.8269 32.5123C60.0421 32.5123 60.236 32.549 60.4087 32.6225C60.5815 32.6961 60.7229 32.799 60.8331 32.9314C60.9434 33.0638 61.0119 33.2181 61.0384 33.3946H60.5682C60.5323 33.2659 60.4526 33.1519 60.329 33.0527C60.2068 32.9522 60.0421 32.902 59.8349 32.902C59.6515 32.902 59.4908 32.9461 59.3526 33.0343C59.2157 33.1213 59.1088 33.2445 59.0318 33.4038C58.956 33.5619 58.9182 33.7476 58.9182 33.9608C58.9182 34.1789 58.9553 34.3688 59.0298 34.5306C59.1055 34.6924 59.2118 34.818 59.3486 34.9074C59.4868 34.9969 59.6488 35.0417 59.8349 35.0417C59.9571 35.0417 60.068 35.0221 60.1676 34.9828C60.2672 34.9436 60.3516 34.8873 60.4207 34.8137C60.4898 34.7402 60.5389 34.652 60.5682 34.5491H61.0384C61.0119 34.7157 60.9461 34.8658 60.8412 34.9994C60.7376 35.1318 60.6001 35.2371 60.4287 35.3155C60.2586 35.3927 60.0607 35.4314 59.8349 35.4314ZM63.0092 35.4314C62.7143 35.4314 62.4599 35.3713 62.246 35.2512C62.0334 35.1299 61.8694 34.9608 61.7538 34.7439C61.6396 34.5258 61.5825 34.272 61.5825 33.9828C61.5825 33.6936 61.6396 33.4387 61.7538 33.2181C61.8694 32.9963 62.0302 32.8236 62.236 32.6998C62.4433 32.5748 62.6851 32.5123 62.9614 32.5123C63.1209 32.5123 63.2783 32.5368 63.4337 32.5858C63.5891 32.6348 63.7306 32.7144 63.8581 32.8248C63.9857 32.9338 64.0873 33.0784 64.163 33.2586C64.2388 33.4387 64.2767 33.6605 64.2767 33.924V34.1079H61.9172V33.7328H63.7984C63.7984 33.5736 63.7639 33.4314 63.6947 33.3064C63.627 33.1813 63.53 33.0827 63.4038 33.0104C63.2789 32.9381 63.1314 32.902 62.9614 32.902C62.7741 32.902 62.612 32.9449 62.4752 33.0306C62.3396 33.1152 62.2354 33.2255 62.1623 33.3615C62.0893 33.4975 62.0527 33.6434 62.0527 33.799V34.049C62.0527 34.2623 62.0926 34.443 62.1723 34.5913C62.2533 34.7383 62.3656 34.8505 62.509 34.9277C62.6526 35.0036 62.8192 35.0417 63.0092 35.0417C63.1328 35.0417 63.2444 35.0257 63.344 34.9939C63.445 34.9608 63.532 34.9118 63.605 34.8468C63.6781 34.7806 63.7346 34.6985 63.7744 34.6005L64.2288 34.7182C64.181 34.8603 64.1006 34.9853 63.9877 35.0931C63.8748 35.1997 63.7352 35.2831 63.5692 35.3431C63.4031 35.402 63.2164 35.4314 63.0092 35.4314ZM66.634 35.3725V31.6079H69.081V32.0122H67.1282V33.2843H68.8977V33.6887H67.1282V35.3725H66.634ZM70.8825 35.4314C70.6062 35.4314 70.3637 35.3707 70.1552 35.2493C69.9479 35.128 69.7858 34.9583 69.6689 34.7402C69.5533 34.5221 69.4955 34.2671 69.4955 33.9755C69.4955 33.6814 69.5533 33.4246 69.6689 33.2052C69.7858 32.9859 69.9479 32.8155 70.1552 32.6942C70.3637 32.5729 70.6062 32.5123 70.8825 32.5123C71.1588 32.5123 71.4006 32.5729 71.6078 32.6942C71.8165 32.8155 71.9784 32.9859 72.094 33.2052C72.2109 33.4246 72.2694 33.6814 72.2694 33.9755C72.2694 34.2671 72.2109 34.5221 72.094 34.7402C71.9784 34.9583 71.8165 35.128 71.6078 35.2493C71.4006 35.3707 71.1588 35.4314 70.8825 35.4314ZM70.8825 35.0417C71.0924 35.0417 71.2651 34.992 71.4007 34.8928C71.5361 34.7935 71.6364 34.663 71.7015 34.5013C71.7666 34.3395 71.7992 34.1642 71.7992 33.9755C71.7992 33.7867 71.7666 33.6109 71.7015 33.4479C71.6364 33.285 71.5361 33.1532 71.4007 33.0527C71.2651 32.9522 71.0924 32.902 70.8825 32.902C70.6726 32.902 70.4999 32.9522 70.3644 33.0527C70.2289 33.1532 70.1286 33.285 70.0635 33.4479C69.9984 33.6109 69.9659 33.7867 69.9659 33.9755C69.9659 34.1642 69.9984 34.3395 70.0635 34.5013C70.1286 34.663 70.2289 34.7935 70.3644 34.8928C70.4999 34.992 70.6726 35.0417 70.8825 35.0417ZM72.9873 35.3725V32.549H73.4416V32.9755H73.4735C73.5294 32.8358 73.6303 32.7225 73.7765 32.6354C73.9226 32.5484 74.0873 32.5049 74.2707 32.5049C74.3052 32.5049 74.3484 32.5055 74.4002 32.5068C74.452 32.508 74.4912 32.5098 74.5177 32.5123V32.9534C74.5018 32.9498 74.4653 32.9443 74.4081 32.9368C74.3523 32.9283 74.2932 32.924 74.2308 32.924C74.082 32.924 73.9491 32.9528 73.8322 33.0104C73.7166 33.0668 73.625 33.1452 73.5572 33.2457C73.4908 33.345 73.4575 33.4583 73.4575 33.5858V35.3725H72.9873ZM76.7172 35.3725V31.6079H78.0961C78.4163 31.6079 78.678 31.6612 78.8813 31.7677C79.0859 31.8732 79.2373 32.016 79.3356 32.1961C79.4339 32.3762 79.4831 32.5772 79.4831 32.799C79.4831 33.0208 79.4339 33.2224 79.3356 33.4038C79.2386 33.5852 79.0885 33.7298 78.8853 33.8376C78.6821 33.9443 78.4217 33.9975 78.1042 33.9975H77.1157V33.5931H78.0882C78.3074 33.5931 78.4834 33.5582 78.6162 33.4884C78.7491 33.4185 78.8454 33.3241 78.9052 33.2052C78.9663 33.0852 78.9969 32.9498 78.9969 32.799C78.9969 32.6483 78.9663 32.5135 78.9052 32.3946C78.8454 32.2757 78.7485 32.1826 78.6142 32.1152C78.4801 32.0466 78.3021 32.0122 78.0802 32.0122H77.2114V35.3725H76.7172ZM81.426 35.4314C81.1497 35.4314 80.9072 35.3707 80.6986 35.2493C80.4914 35.128 80.3293 34.9583 80.2124 34.7402C80.0968 34.5221 80.0391 34.2671 80.0391 33.9755C80.0391 33.6814 80.0968 33.4246 80.2124 33.2052C80.3293 32.9859 80.4914 32.8155 80.6986 32.6942C80.9072 32.5729 81.1497 32.5123 81.426 32.5123C81.7024 32.5123 81.9441 32.5729 82.1514 32.6942C82.3599 32.8155 82.522 32.9859 82.6376 33.2052C82.7545 33.4246 82.813 33.6814 82.813 33.9755C82.813 34.2671 82.7545 34.5221 82.6376 34.7402C82.522 34.9583 82.3599 35.128 82.1514 35.2493C81.9441 35.3707 81.7024 35.4314 81.426 35.4314ZM81.426 35.0417C81.6359 35.0417 81.8086 34.992 81.9441 34.8928C82.0796 34.7935 82.1799 34.663 82.245 34.5013C82.3101 34.3395 82.3426 34.1642 82.3426 33.9755C82.3426 33.7867 82.3101 33.6109 82.245 33.4479C82.1799 33.285 82.0796 33.1532 81.9441 33.0527C81.8086 32.9522 81.6359 32.902 81.426 32.902C81.2161 32.902 81.0434 32.9522 80.9079 33.0527C80.7723 33.1532 80.6721 33.285 80.607 33.4479C80.5419 33.6109 80.5093 33.7867 80.5093 33.9755C80.5093 34.1642 80.5419 34.3395 80.607 34.5013C80.6721 34.663 80.7723 34.7935 80.9079 34.8928C81.0434 34.992 81.2161 35.0417 81.426 35.0417ZM85.6989 33.1814L85.2764 33.2917C85.2499 33.2267 85.2107 33.1636 85.1589 33.1023C85.1084 33.0399 85.0393 32.9884 84.9516 32.9479C84.864 32.9075 84.7517 32.8872 84.6148 32.8872C84.4275 32.8872 84.2714 32.9271 84.1465 33.0067C84.023 33.0852 83.9613 33.1851 83.9613 33.3064C83.9613 33.4142 84.0037 33.4994 84.0887 33.5619C84.1738 33.6244 84.3067 33.6765 84.4873 33.7182L84.9417 33.8211C85.2154 33.8823 85.4192 33.9761 85.5534 34.1023C85.6877 34.2273 85.7547 34.3885 85.7547 34.5858C85.7547 34.7476 85.7042 34.8922 85.6033 35.0196C85.5036 35.147 85.3641 35.2475 85.1848 35.321C85.0054 35.3946 84.7968 35.4314 84.5591 35.4314C84.2469 35.4314 83.9885 35.3688 83.7838 35.2439C83.5793 35.1189 83.4498 34.9363 83.3953 34.6961L83.8417 34.5931C83.8842 34.7451 83.9645 34.859 84.0828 34.9351C84.2024 35.0111 84.3585 35.049 84.5511 35.049C84.7703 35.049 84.9443 35.0061 85.0732 34.9204C85.2034 34.8333 85.2685 34.7292 85.2685 34.6078C85.2685 34.5098 85.2312 34.4277 85.1569 34.3615C85.0824 34.2941 84.9683 34.2439 84.8141 34.2108L84.3039 34.1005C84.0237 34.0392 83.8178 33.9443 83.6862 33.8156C83.556 33.6856 83.4909 33.5233 83.4909 33.3284C83.4909 33.1691 83.5395 33.0282 83.6365 32.9056C83.7347 32.7831 83.8682 32.6869 84.0369 32.617C84.207 32.5471 84.3996 32.5123 84.6148 32.5123C84.9178 32.5123 85.1556 32.5735 85.3282 32.6961C85.5023 32.8187 85.6258 32.9804 85.6989 33.1814ZM86.4626 35.3725V32.549H86.9328V35.3725H86.4626ZM86.7017 32.0784C86.6101 32.0784 86.5311 32.0496 86.4646 31.9921C86.3995 31.9344 86.3669 31.8652 86.3669 31.7843C86.3669 31.7035 86.3995 31.6342 86.4646 31.5766C86.5311 31.519 86.6101 31.4902 86.7017 31.4902C86.7934 31.4902 86.8718 31.519 86.9369 31.5766C87.0033 31.6342 87.0365 31.7035 87.0365 31.7843C87.0365 31.8652 87.0033 31.9344 86.9369 31.9921C86.8718 32.0496 86.7934 32.0784 86.7017 32.0784ZM89.1254 32.549V32.9167H87.5392V32.549H89.1254ZM88.0015 31.8726H88.4718V34.5637C88.4718 34.6862 88.4911 34.7782 88.5296 34.8395C88.5694 34.8995 88.6199 34.94 88.681 34.9608C88.7435 34.9804 88.8092 34.9902 88.8783 34.9902C88.9301 34.9902 88.9726 34.9878 89.0058 34.9828C89.039 34.9767 89.0656 34.9718 89.0855 34.9681L89.1812 35.3579C89.1493 35.3688 89.1048 35.3799 89.0476 35.3909C88.9906 35.4032 88.9181 35.4093 88.8305 35.4093C88.6976 35.4093 88.5674 35.383 88.4399 35.3303C88.3136 35.2776 88.2087 35.1973 88.125 35.0895C88.0427 34.9816 88.0015 34.8456 88.0015 34.6814V31.8726ZM89.8328 35.3725V32.549H90.3031V35.3725H89.8328ZM90.0719 32.0784C89.9803 32.0784 89.9012 32.0496 89.8348 31.9921C89.7697 31.9344 89.7372 31.8652 89.7372 31.7843C89.7372 31.7035 89.7697 31.6342 89.8348 31.5766C89.9012 31.519 89.9803 31.4902 90.0719 31.4902C90.1636 31.4902 90.2419 31.519 90.307 31.5766C90.3734 31.6342 90.4067 31.7035 90.4067 31.7843C90.4067 31.8652 90.3734 31.9344 90.307 31.9921C90.2419 32.0496 90.1636 32.0784 90.0719 32.0784ZM93.6673 32.549L92.5355 35.3725H92.0572L90.9253 32.549H91.4354L92.2803 34.799H92.3122L93.1571 32.549H93.6673ZM95.4621 35.4314C95.1665 35.4314 94.9121 35.3713 94.6989 35.2512C94.4857 35.1299 94.3219 34.9608 94.2063 34.7439C94.0921 34.5258 94.035 34.272 94.035 33.9828C94.035 33.6936 94.0921 33.4387 94.2063 33.2181C94.3219 32.9963 94.4829 32.8236 94.6886 32.6998C94.8962 32.5748 95.1375 32.5123 95.4144 32.5123C95.5734 32.5123 95.7305 32.5368 95.8867 32.5858C96.0419 32.6348 96.1831 32.7144 96.3103 32.8248C96.4385 32.9338 96.5395 33.0784 96.6152 33.2586C96.691 33.4387 96.7293 33.6605 96.7293 33.924V34.1079H94.3698V33.7328H96.2505C96.2505 33.5736 96.2159 33.4314 96.1476 33.3064C96.0793 33.1813 95.9821 33.0827 95.8567 33.0104C95.7314 32.9381 95.5836 32.902 95.4144 32.902C95.2264 32.902 95.0646 32.9449 94.928 33.0306C94.7924 33.1152 94.6877 33.2255 94.6147 33.3615C94.5418 33.4975 94.5053 33.6434 94.5053 33.799V34.049C94.5053 34.2623 94.5455 34.443 94.625 34.5913C94.7054 34.7383 94.8177 34.8505 94.9617 34.9277C95.1048 35.0036 95.2722 35.0417 95.4621 35.0417C95.5855 35.0417 95.6968 35.0257 95.7969 34.9939C95.8979 34.9608 95.9849 34.9118 96.0578 34.8468C96.1308 34.7806 96.1869 34.6985 96.2271 34.6005L96.6816 34.7182C96.6339 34.8603 96.5535 34.9853 96.4403 35.0931C96.3272 35.1997 96.1878 35.2831 96.0213 35.3431C95.8558 35.402 95.6687 35.4314 95.4621 35.4314ZM99.0862 35.3725V31.6079H100.466C100.786 31.6079 101.047 31.6612 101.25 31.7677C101.455 31.8732 101.607 32.016 101.705 32.1961C101.803 32.3762 101.853 32.5772 101.853 32.799C101.853 33.0208 101.803 33.2224 101.705 33.4038C101.608 33.5852 101.458 33.7298 101.255 33.8376C101.051 33.9443 100.791 33.9975 100.473 33.9975H99.4855V33.5931H100.457C100.677 33.5931 100.853 33.5582 100.986 33.4884C101.118 33.4185 101.215 33.3241 101.275 33.2052C101.335 33.0852 101.366 32.9498 101.366 32.799C101.366 32.6483 101.335 32.5135 101.275 32.3946C101.215 32.2757 101.118 32.1826 100.984 32.1152C100.849 32.0466 100.671 32.0122 100.45 32.0122H99.5809V35.3725H99.0862ZM103.835 35.4314C103.54 35.4314 103.285 35.3713 103.072 35.2512C102.859 35.1299 102.695 34.9608 102.579 34.7439C102.465 34.5258 102.408 34.272 102.408 33.9828C102.408 33.6936 102.465 33.4387 102.579 33.2181C102.695 32.9963 102.856 32.8236 103.062 32.6998C103.27 32.5748 103.511 32.5123 103.788 32.5123C103.947 32.5123 104.104 32.5368 104.26 32.5858C104.415 32.6348 104.556 32.7144 104.684 32.8248C104.812 32.9338 104.913 33.0784 104.989 33.2586C105.064 33.4387 105.103 33.6605 105.103 33.924V34.1079H102.743V33.7328H104.625C104.625 33.5736 104.59 33.4314 104.521 33.3064C104.453 33.1813 104.356 33.0827 104.23 33.0104C104.105 32.9381 103.957 32.902 103.788 32.902C103.6 32.902 103.438 32.9449 103.301 33.0306C103.166 33.1152 103.061 33.2255 102.988 33.3615C102.915 33.4975 102.879 33.6434 102.879 33.799V34.049C102.879 34.2623 102.919 34.443 102.998 34.5913C103.08 34.7383 103.192 34.8505 103.335 34.9277C103.478 35.0036 103.646 35.0417 103.835 35.0417C103.959 35.0417 104.07 35.0257 104.17 34.9939C104.271 34.9608 104.358 34.9118 104.431 34.8468C104.504 34.7806 104.56 34.6985 104.6 34.6005L105.055 34.7182C105.007 34.8603 104.927 34.9853 104.814 35.0931C104.7 35.1997 104.561 35.2831 104.396 35.3431C104.229 35.402 104.042 35.4314 103.835 35.4314ZM107.061 35.4314C106.785 35.4314 106.543 35.3707 106.334 35.2493C106.127 35.128 105.965 34.9583 105.848 34.7402C105.732 34.5221 105.674 34.2671 105.674 33.9755C105.674 33.6814 105.732 33.4246 105.848 33.2052C105.965 32.9859 106.127 32.8155 106.334 32.6942C106.543 32.5729 106.785 32.5123 107.061 32.5123C107.338 32.5123 107.579 32.5729 107.787 32.6942C107.995 32.8155 108.157 32.9859 108.273 33.2052C108.39 33.4246 108.448 33.6814 108.448 33.9755C108.448 34.2671 108.39 34.5221 108.273 34.7402C108.157 34.9583 107.995 35.128 107.787 35.2493C107.579 35.3707 107.338 35.4314 107.061 35.4314ZM107.061 35.0417C107.271 35.0417 107.444 34.992 107.579 34.8928C107.715 34.7935 107.815 34.663 107.88 34.5013C107.946 34.3395 107.978 34.1642 107.978 33.9755C107.978 33.7867 107.946 33.6109 107.88 33.4479C107.815 33.285 107.715 33.1532 107.579 33.0527C107.444 32.9522 107.271 32.902 107.061 32.902C106.852 32.902 106.679 32.9522 106.543 33.0527C106.408 33.1532 106.307 33.285 106.243 33.4479C106.177 33.6109 106.145 33.7867 106.145 33.9755C106.145 34.1642 106.177 34.3395 106.243 34.5013C106.307 34.663 106.408 34.7935 106.543 34.8928C106.679 34.992 106.852 35.0417 107.061 35.0417ZM109.166 36.4314V32.549H109.621V32.9976H109.676C109.711 32.9485 109.758 32.886 109.82 32.81C109.883 32.7328 109.972 32.6642 110.087 32.6042C110.203 32.5429 110.362 32.5123 110.561 32.5123C110.819 32.5123 111.046 32.5717 111.243 32.6905C111.439 32.8094 111.592 32.9779 111.703 33.1961C111.813 33.4142 111.868 33.6716 111.868 33.9682C111.868 34.2672 111.813 34.5264 111.703 34.7457C111.592 34.9639 111.44 35.133 111.244 35.2531C111.049 35.3719 110.825 35.4314 110.569 35.4314C110.373 35.4314 110.215 35.4014 110.097 35.3413C109.979 35.2801 109.887 35.2108 109.824 35.1336C109.76 35.0551 109.711 34.9902 109.676 34.9388H109.637V36.4314H109.166ZM109.628 33.9608C109.628 34.174 109.662 34.3621 109.73 34.5252C109.798 34.6869 109.897 34.8138 110.027 34.9056C110.158 34.9963 110.317 35.0417 110.506 35.0417C110.702 35.0417 110.866 34.9939 110.998 34.8983C111.13 34.8015 111.23 34.6716 111.297 34.5086C111.364 34.3443 111.398 34.1618 111.398 33.9608C111.398 33.7622 111.365 33.5833 111.299 33.424C111.233 33.2635 111.134 33.1367 111.001 33.0435C110.87 32.9492 110.705 32.902 110.506 32.902C110.314 32.902 110.153 32.9467 110.023 33.0361C109.893 33.1244 109.795 33.2481 109.728 33.4075C109.662 33.5655 109.628 33.75 109.628 33.9608ZM113.056 31.6079V35.3725H112.586V31.6079H113.056ZM115.201 35.4314C114.906 35.4314 114.652 35.3713 114.437 35.2512C114.225 35.1299 114.06 34.9608 113.945 34.7439C113.831 34.5258 113.774 34.272 113.774 33.9828C113.774 33.6936 113.831 33.4387 113.945 33.2181C114.06 32.9963 114.221 32.8236 114.427 32.6998C114.635 32.5748 114.877 32.5123 115.153 32.5123C115.312 32.5123 115.47 32.5368 115.625 32.5858C115.78 32.6348 115.922 32.7144 116.05 32.8248C116.177 32.9338 116.279 33.0784 116.355 33.2586C116.43 33.4387 116.468 33.6605 116.468 33.924V34.1079H114.109V33.7328H115.99C115.99 33.5736 115.955 33.4314 115.886 33.3064C115.819 33.1813 115.721 33.0827 115.595 33.0104C115.47 32.9381 115.323 32.902 115.153 32.902C114.966 32.902 114.803 32.9449 114.667 33.0306C114.531 33.1152 114.427 33.2255 114.354 33.3615C114.28 33.4975 114.244 33.6434 114.244 33.799V34.049C114.244 34.2623 114.284 34.443 114.363 34.5913C114.445 34.7383 114.557 34.8505 114.7 34.9277C114.844 35.0036 115.011 35.0417 115.201 35.0417C115.324 35.0417 115.436 35.0257 115.535 34.9939C115.636 34.9608 115.723 34.9118 115.796 34.8468C115.869 34.7806 115.926 34.6985 115.966 34.6005L116.42 34.7182C116.372 34.8603 116.292 34.9853 116.179 35.0931C116.067 35.1997 115.926 35.2831 115.761 35.3431C115.594 35.402 115.408 35.4314 115.201 35.4314ZM122.269 33.4902C122.269 33.8872 122.192 34.2304 122.035 34.5196C121.88 34.8088 121.667 35.0319 121.396 35.1887C121.125 35.3456 120.816 35.4241 120.468 35.4241C120.119 35.4241 119.809 35.3456 119.539 35.1887C119.268 35.0319 119.055 34.8088 118.899 34.5196C118.743 34.2304 118.666 33.8872 118.666 33.4902C118.666 33.0932 118.743 32.75 118.899 32.4608C119.055 32.1716 119.268 31.9485 119.539 31.7916C119.809 31.6348 120.119 31.5564 120.468 31.5564C120.816 31.5564 121.125 31.6348 121.396 31.7916C121.667 31.9485 121.88 32.1716 122.035 32.4608C122.192 32.75 122.269 33.0932 122.269 33.4902ZM121.79 33.4902C121.79 33.1642 121.731 32.8891 121.614 32.6648C121.497 32.4406 121.338 32.2708 121.137 32.1556C120.937 32.0405 120.715 31.9828 120.468 31.9828C120.22 31.9828 119.997 32.0405 119.795 32.1556C119.596 32.2708 119.438 32.4406 119.319 32.6648C119.202 32.8891 119.144 33.1642 119.144 33.4902C119.144 33.8162 119.202 34.0913 119.319 34.3156C119.438 34.5398 119.596 34.7095 119.795 34.8248C119.997 34.94 120.22 34.9975 120.468 34.9975C120.715 34.9975 120.937 34.94 121.137 34.8248C121.338 34.7095 121.497 34.5398 121.614 34.3156C121.731 34.0913 121.79 33.8162 121.79 33.4902ZM123.507 33.674V35.3725H123.036V32.549H123.491V32.9902H123.53C123.602 32.8468 123.711 32.7316 123.857 32.6446C124.003 32.5564 124.192 32.5123 124.423 32.5123C124.631 32.5123 124.811 32.5515 124.967 32.6299C125.123 32.7071 125.243 32.8248 125.329 32.9828C125.416 33.1397 125.459 33.3382 125.459 33.5785V35.3725H124.989V33.6078C124.989 33.386 124.926 33.2133 124.802 33.0895C124.677 32.9645 124.505 32.902 124.287 32.902C124.138 32.902 124.003 32.932 123.885 32.9921C123.768 33.0521 123.676 33.1397 123.608 33.2549C123.54 33.3701 123.507 33.5098 123.507 33.674ZM126.789 31.6079V35.3725H126.319V31.6079H126.789ZM127.953 36.4314C127.873 36.4314 127.802 36.4253 127.739 36.413C127.678 36.402 127.635 36.3909 127.61 36.3799L127.73 35.9975C127.844 36.0245 127.945 36.0343 128.033 36.0269C128.12 36.0196 128.199 35.9835 128.266 35.9185C128.335 35.8547 128.398 35.7512 128.455 35.6078L128.543 35.3872L127.411 32.549H127.921L128.766 34.799H128.798L129.643 32.549H130.153L128.854 35.7843C128.795 35.9301 128.723 36.0508 128.636 36.1464C128.55 36.2432 128.45 36.3149 128.336 36.3615C128.223 36.4081 128.095 36.4314 127.953 36.4314Z" fill="black"/>
</g>
<defs>
<clipPath id="clip0_32_2">
<rect width="130" height="44" fill="white"/>
</clipPath>
</defs>
</svg>
